<?xml version="1.0" encoding="utf-8"?>
<COLLADA xmlns="http://www.collada.org/2005/11/COLLADASchema" version="1.4.1" xmlns:xsi="http://www.w3.org/2001/XMLSchema-instance">
  <asset>
    <contributor>
      <author>Blender User</author>
      <authoring_tool>Blender 3.4.1 commit date:2022-12-19, commit time:17:00, hash:55485cb379f7</authoring_tool>
    </contributor>
    <created>2026-05-24T18:01:53</created>
    <modified>2026-05-24T18:01:53</modified>
    <unit name="meter" meter="1"/>
    <up_axis>Z_UP</up_axis>
  </asset>
  <library_effects>
    <effect id="galvanized_trailer_steel-effect">
      <profile_COMMON>
        <technique sid="common">
          <lambert>
            <emission>
              <color sid="emission">0 0 0 1</color>
            </emission>
            <diffuse>
              <color sid="diffuse">0.4941176 0.5176471 0.5333334 1</color>
            </diffuse>
            <reflectivity>
              <float sid="specular">0.5</float>
            </reflectivity>
          </lambert>
        </technique>
      </profile_COMMON>
    </effect>
    <effect id="corrugated_galvanized_metal-effect">
      <profile_COMMON>
        <technique sid="common">
          <lambert>
            <emission>
              <color sid="emission">0 0 0 1</color>
            </emission>
            <diffuse>
              <color sid="diffuse">0.627451 0.6509804 0.6509804 1</color>
            </diffuse>
            <reflectivity>
              <float sid="specular">0.5</float>
            </reflectivity>
          </lambert>
        </technique>
      </profile_COMMON>
    </effect>
  </library_effects>
  <library_images/>
  <library_materials>
    <material id="galvanized_trailer_steel-material" name="galvanized trailer steel">
      <instance_effect url="#galvanized_trailer_steel-effect"/>
    </material>
    <material id="corrugated_galvanized_metal-material" name="corrugated galvanized metal">
      <instance_effect url="#corrugated_galvanized_metal-effect"/>
    </material>
  </library_materials>
  <library_geometries>
    <geometry id="corrugation_rib_x_70_mesh-mesh" name="corrugation rib x=70 mesh">
      <mesh>
        <source id="corrugation_rib_x_70_mesh-mesh-positions">
          <float_array id="corrugation_rib_x_70_mesh-mesh-positions-array" count="24">17.00403 -0.07592064 1.940169 17.08023 3.734079 1.940169 17.10817 3.733521 1.940169 17.03197 -0.07647931 1.940169 17.00403 -0.07592064 1.960489 17.08023 3.734079 1.960489 17.10817 3.733521 1.960489 17.03197 -0.07647931 1.960489</float_array>
          <technique_common>
            <accessor source="#corrugation_rib_x_70_mesh-mesh-positions-array" count="8" stride="3">
              <param name="X" type="float"/>
              <param name="Y" type="float"/>
              <param name="Z" type="float"/>
            </accessor>
          </technique_common>
        </source>
        <source id="corrugation_rib_x_70_mesh-mesh-normals">
          <float_array id="corrugation_rib_x_70_mesh-mesh-normals-array" count="36">7.06309e-6 0 -1 -8.95679e-6 0 1 -0.9998001 0.01999682 0 0.01999402 0.9998001 0 0.9998001 -0.01999527 0 -0.01999646 -0.9998 0 0 0 -1 2.56939e-6 0 1 -0.9998002 0.01999574 0 0.01999151 0.9998002 0 0.9998 -0.01999729 0 -0.01999437 -0.9998001 0</float_array>
          <technique_common>
            <accessor source="#corrugation_rib_x_70_mesh-mesh-normals-array" count="12" stride="3">
              <param name="X" type="float"/>
              <param name="Y" type="float"/>
              <param name="Z" type="float"/>
            </accessor>
          </technique_common>
        </source>
        <vertices id="corrugation_rib_x_70_mesh-mesh-vertices">
          <input semantic="POSITION" source="#corrugation_rib_x_70_mesh-mesh-positions"/>
        </vertices>
        <triangles material="galvanized_trailer_steel-material" count="12">
          <input semantic="VERTEX" source="#corrugation_rib_x_70_mesh-mesh-vertices" offset="0"/>
          <input semantic="NORMAL" source="#corrugation_rib_x_70_mesh-mesh-normals" offset="1"/>
          <p>1 0 3 0 0 0 7 1 5 1 4 1 4 2 1 2 0 2 5 3 2 3 1 3 6 4 3 4 2 4 7 5 0 5 3 5 1 6 2 6 3 6 7 7 6 7 5 7 4 8 5 8 1 8 5 9 6 9 2 9 6 10 7 10 3 10 7 11 4 11 0 11</p>
        </triangles>
      </mesh>
    </geometry>
    <geometry id="corrugation_rib_x_62_mesh-mesh" name="corrugation rib x=62 mesh">
      <mesh>
        <source id="corrugation_rib_x_62_mesh-mesh-positions">
          <float_array id="corrugation_rib_x_62_mesh-mesh-positions-array" count="24">16.80083 -0.07592064 1.9558 16.87703 3.734079 1.9558 16.90497 3.733521 1.9558 16.82877 -0.07647931 1.9558 16.80083 -0.07592064 1.97612 16.87703 3.734079 1.97612 16.90497 3.733521 1.97612 16.82877 -0.07647931 1.97612</float_array>
          <technique_common>
            <accessor source="#corrugation_rib_x_62_mesh-mesh-positions-array" count="8" stride="3">
              <param name="X" type="float"/>
              <param name="Y" type="float"/>
              <param name="Z" type="float"/>
            </accessor>
          </technique_common>
        </source>
        <source id="corrugation_rib_x_62_mesh-mesh-normals">
          <float_array id="corrugation_rib_x_62_mesh-mesh-normals-array" count="36">4.25098e-6 0 -1 -8.95679e-6 0 1 -0.9998001 0.01999551 0 0.01999568 0.9998001 0 0.9998001 -0.01999551 0 -0.01999437 -0.9998001 0 0 0 -1 -2.20873e-7 0 1 -0.9998 0.01999652 0 0.01999193 0.9998002 0 0.9998002 -0.01999574 0 -0.0199961 -0.9998002 0</float_array>
          <technique_common>
            <accessor source="#corrugation_rib_x_62_mesh-mesh-normals-array" count="12" stride="3">
              <param name="X" type="float"/>
              <param name="Y" type="float"/>
              <param name="Z" type="float"/>
            </accessor>
          </technique_common>
        </source>
        <vertices id="corrugation_rib_x_62_mesh-mesh-vertices">
          <input semantic="POSITION" source="#corrugation_rib_x_62_mesh-mesh-positions"/>
        </vertices>
        <triangles material="galvanized_trailer_steel-material" count="12">
          <input semantic="VERTEX" source="#corrugation_rib_x_62_mesh-mesh-vertices" offset="0"/>
          <input semantic="NORMAL" source="#corrugation_rib_x_62_mesh-mesh-normals" offset="1"/>
          <p>1 0 3 0 0 0 7 1 5 1 4 1 4 2 1 2 0 2 5 3 2 3 1 3 6 4 3 4 2 4 7 5 0 5 3 5 1 6 2 6 3 6 7 7 6 7 5 7 4 8 5 8 1 8 5 9 6 9 2 9 6 10 7 10 3 10 7 11 4 11 0 11</p>
        </triangles>
      </mesh>
    </geometry>
    <geometry id="corrugation_rib_x_54_mesh-mesh" name="corrugation rib x=54 mesh">
      <mesh>
        <source id="corrugation_rib_x_54_mesh-mesh-positions">
          <float_array id="corrugation_rib_x_54_mesh-mesh-positions-array" count="24">16.59763 -0.07592064 1.971431 16.67383 3.734079 1.971431 16.70177 3.733521 1.971431 16.62557 -0.07647931 1.971431 16.59763 -0.07592064 1.991751 16.67383 3.734079 1.991751 16.70177 3.733521 1.991751 16.62557 -0.07647931 1.991751</float_array>
          <technique_common>
            <accessor source="#corrugation_rib_x_54_mesh-mesh-positions-array" count="8" stride="3">
              <param name="X" type="float"/>
              <param name="Y" type="float"/>
              <param name="Z" type="float"/>
            </accessor>
          </technique_common>
        </source>
        <source id="corrugation_rib_x_54_mesh-mesh-normals">
          <float_array id="corrugation_rib_x_54_mesh-mesh-normals-array" count="36">1.44114e-6 0 -1 0 0 1 -0.9998002 0.01999574 0 0.0199936 0.9998001 0 0.9998 -0.01999729 0 -0.01999646 -0.9998 0 8.95679e-6 0 -1 -3.00892e-6 0 1 -0.9998001 0.01999551 0 0.01999151 0.9998002 0 0.9998001 -0.01999551 0 -0.01999861 -0.9998001 0</float_array>
          <technique_common>
            <accessor source="#corrugation_rib_x_54_mesh-mesh-normals-array" count="12" stride="3">
              <param name="X" type="float"/>
              <param name="Y" type="float"/>
              <param name="Z" type="float"/>
            </accessor>
          </technique_common>
        </source>
        <vertices id="corrugation_rib_x_54_mesh-mesh-vertices">
          <input semantic="POSITION" source="#corrugation_rib_x_54_mesh-mesh-positions"/>
        </vertices>
        <triangles material="galvanized_trailer_steel-material" count="12">
          <input semantic="VERTEX" source="#corrugation_rib_x_54_mesh-mesh-vertices" offset="0"/>
          <input semantic="NORMAL" source="#corrugation_rib_x_54_mesh-mesh-normals" offset="1"/>
          <p>1 0 3 0 0 0 7 1 5 1 4 1 4 2 1 2 0 2 5 3 2 3 1 3 6 4 3 4 2 4 7 5 0 5 3 5 1 6 2 6 3 6 7 7 6 7 5 7 4 8 5 8 1 8 5 9 6 9 2 9 6 10 7 10 3 10 7 11 4 11 0 11</p>
        </triangles>
      </mesh>
    </geometry>
    <geometry id="corrugation_rib_x_46_mesh-mesh" name="corrugation rib x=46 mesh">
      <mesh>
        <source id="corrugation_rib_x_46_mesh-mesh-positions">
          <float_array id="corrugation_rib_x_46_mesh-mesh-positions-array" count="24">16.39443 -0.07592064 1.987061 16.47063 3.734079 1.987061 16.49857 3.733521 1.987061 16.42237 -0.07647931 1.987061 16.39443 -0.07592064 2.007381 16.47063 3.734079 2.007381 16.49857 3.733521 2.007381 16.42237 -0.07647931 2.007381</float_array>
          <technique_common>
            <accessor source="#corrugation_rib_x_46_mesh-mesh-positions-array" count="8" stride="3">
              <param name="X" type="float"/>
              <param name="Y" type="float"/>
              <param name="Z" type="float"/>
            </accessor>
          </technique_common>
        </source>
        <source id="corrugation_rib_x_46_mesh-mesh-normals">
          <float_array id="corrugation_rib_x_46_mesh-mesh-normals-array" count="36">7.58572e-6 0 -1 0 0 1 -0.9998001 0.01999706 0 0.0199936 0.9998001 0 0.9998001 -0.01999551 0 -0.01999646 -0.9998 0 0 0 -1 -5.79917e-6 0 1 -0.9998001 0.01999551 0 0.01999402 0.9998001 0 0.9998001 -0.01999628 0 -0.01999396 -0.9998001 0</float_array>
          <technique_common>
            <accessor source="#corrugation_rib_x_46_mesh-mesh-normals-array" count="12" stride="3">
              <param name="X" type="float"/>
              <param name="Y" type="float"/>
              <param name="Z" type="float"/>
            </accessor>
          </technique_common>
        </source>
        <vertices id="corrugation_rib_x_46_mesh-mesh-vertices">
          <input semantic="POSITION" source="#corrugation_rib_x_46_mesh-mesh-positions"/>
        </vertices>
        <triangles material="galvanized_trailer_steel-material" count="12">
          <input semantic="VERTEX" source="#corrugation_rib_x_46_mesh-mesh-vertices" offset="0"/>
          <input semantic="NORMAL" source="#corrugation_rib_x_46_mesh-mesh-normals" offset="1"/>
          <p>1 0 3 0 0 0 7 1 5 1 4 1 4 2 1 2 0 2 5 3 2 3 1 3 6 4 3 4 2 4 7 5 0 5 3 5 1 6 2 6 3 6 7 7 6 7 5 7 4 8 5 8 1 8 5 9 6 9 2 9 6 10 7 10 3 10 7 11 4 11 0 11</p>
        </triangles>
      </mesh>
    </geometry>
    <geometry id="corrugation_rib_x_38_mesh-mesh" name="corrugation rib x=38 mesh">
      <mesh>
        <source id="corrugation_rib_x_38_mesh-mesh-positions">
          <float_array id="corrugation_rib_x_38_mesh-mesh-positions-array" count="24">16.19123 -0.07592064 2.002692 16.26743 3.734079 2.002692 16.29537 3.733521 2.002692 16.21917 -0.07647931 2.002692 16.19123 -0.07592064 2.023012 16.26743 3.734079 2.023012 16.29537 3.733521 2.023012 16.21917 -0.07647931 2.023012</float_array>
          <technique_common>
            <accessor source="#corrugation_rib_x_38_mesh-mesh-positions-array" count="8" stride="3">
              <param name="X" type="float"/>
              <param name="Y" type="float"/>
              <param name="Z" type="float"/>
            </accessor>
          </technique_common>
        </source>
        <source id="corrugation_rib_x_38_mesh-mesh-normals">
          <float_array id="corrugation_rib_x_38_mesh-mesh-normals-array" count="36">4.77579e-6 0 -1 0 0 1 -0.9998001 0.01999551 0 0.0199936 0.9998001 0 0.9998001 -0.01999551 0 -0.01999437 -0.9998001 0 0 0 -1 -8.59001e-6 0 1 -0.9998001 0.0199958 0 0.01999402 0.9998001 0 0.9998001 -0.01999503 0 -0.01999688 -0.9998 0</float_array>
          <technique_common>
            <accessor source="#corrugation_rib_x_38_mesh-mesh-normals-array" count="12" stride="3">
              <param name="X" type="float"/>
              <param name="Y" type="float"/>
              <param name="Z" type="float"/>
            </accessor>
          </technique_common>
        </source>
        <vertices id="corrugation_rib_x_38_mesh-mesh-vertices">
          <input semantic="POSITION" source="#corrugation_rib_x_38_mesh-mesh-positions"/>
        </vertices>
        <triangles material="galvanized_trailer_steel-material" count="12">
          <input semantic="VERTEX" source="#corrugation_rib_x_38_mesh-mesh-vertices" offset="0"/>
          <input semantic="NORMAL" source="#corrugation_rib_x_38_mesh-mesh-normals" offset="1"/>
          <p>1 0 3 0 0 0 7 1 5 1 4 1 4 2 1 2 0 2 5 3 2 3 1 3 6 4 3 4 2 4 7 5 0 5 3 5 1 6 2 6 3 6 7 7 6 7 5 7 4 8 5 8 1 8 5 9 6 9 2 9 6 10 7 10 3 10 7 11 4 11 0 11</p>
        </triangles>
      </mesh>
    </geometry>
    <geometry id="corrugation_rib_x_30_mesh-mesh" name="corrugation rib x=30 mesh">
      <mesh>
        <source id="corrugation_rib_x_30_mesh-mesh-positions">
          <float_array id="corrugation_rib_x_30_mesh-mesh-positions-array" count="24">15.98803 -0.07592064 2.018323 16.06423 3.734079 2.018323 16.09217 3.733521 2.018323 16.01597 -0.07647931 2.018323 15.98803 -0.07592064 2.038643 16.06423 3.734079 2.038643 16.09217 3.733521 2.038643 16.01597 -0.07647931 2.038643</float_array>
          <technique_common>
            <accessor source="#corrugation_rib_x_30_mesh-mesh-positions-array" count="8" stride="3">
              <param name="X" type="float"/>
              <param name="Y" type="float"/>
              <param name="Z" type="float"/>
            </accessor>
          </technique_common>
        </source>
        <source id="corrugation_rib_x_30_mesh-mesh-normals">
          <float_array id="corrugation_rib_x_30_mesh-mesh-normals-array" count="36">1.96155e-6 0 -1 -8.95709e-6 0 1 -0.9998001 0.01999628 0 0.0199936 0.9998001 0 0.9998001 -0.01999706 0 -0.01999646 -0.9998 0 0 0 -1 6.53391e-6 0 1 -0.9998002 0.01999574 0 0.01999193 0.9998002 0 0.9998002 -0.01999574 0 -0.0199961 -0.9998002 0</float_array>
          <technique_common>
            <accessor source="#corrugation_rib_x_30_mesh-mesh-normals-array" count="12" stride="3">
              <param name="X" type="float"/>
              <param name="Y" type="float"/>
              <param name="Z" type="float"/>
            </accessor>
          </technique_common>
        </source>
        <vertices id="corrugation_rib_x_30_mesh-mesh-vertices">
          <input semantic="POSITION" source="#corrugation_rib_x_30_mesh-mesh-positions"/>
        </vertices>
        <triangles material="galvanized_trailer_steel-material" count="12">
          <input semantic="VERTEX" source="#corrugation_rib_x_30_mesh-mesh-vertices" offset="0"/>
          <input semantic="NORMAL" source="#corrugation_rib_x_30_mesh-mesh-normals" offset="1"/>
          <p>1 0 3 0 0 0 7 1 5 1 4 1 4 2 1 2 0 2 5 3 2 3 1 3 6 4 3 4 2 4 7 5 0 5 3 5 1 6 2 6 3 6 7 7 6 7 5 7 4 8 5 8 1 8 5 9 6 9 2 9 6 10 7 10 3 10 7 11 4 11 0 11</p>
        </triangles>
      </mesh>
    </geometry>
    <geometry id="corrugation_rib_x_22_mesh-mesh" name="corrugation rib x=22 mesh">
      <mesh>
        <source id="corrugation_rib_x_22_mesh-mesh-positions">
          <float_array id="corrugation_rib_x_22_mesh-mesh-positions-array" count="24">15.78483 -0.07592064 2.033954 15.86103 3.734079 2.033954 15.88897 3.733521 2.033954 15.81277 -0.07647931 2.033954 15.78483 -0.07592064 2.054274 15.86103 3.734079 2.054274 15.88897 3.733521 2.054274 15.81277 -0.07647931 2.054274</float_array>
          <technique_common>
            <accessor source="#corrugation_rib_x_22_mesh-mesh-positions-array" count="8" stride="3">
              <param name="X" type="float"/>
              <param name="Y" type="float"/>
              <param name="Z" type="float"/>
            </accessor>
          </technique_common>
        </source>
        <source id="corrugation_rib_x_22_mesh-mesh-normals">
          <float_array id="corrugation_rib_x_22_mesh-mesh-normals-array" count="30">8.10862e-6 0 -1 -8.95709e-6 0 1 -0.9998 0.01999652 0 0.0199936 0.9998001 0 0.9998002 -0.01999574 0 -0.01999646 -0.9998 0 0 0 -1 3.74584e-6 0 1 -0.9998001 0.01999551 0 0.9998001 -0.01999628 0</float_array>
          <technique_common>
            <accessor source="#corrugation_rib_x_22_mesh-mesh-normals-array" count="10" stride="3">
              <param name="X" type="float"/>
              <param name="Y" type="float"/>
              <param name="Z" type="float"/>
            </accessor>
          </technique_common>
        </source>
        <vertices id="corrugation_rib_x_22_mesh-mesh-vertices">
          <input semantic="POSITION" source="#corrugation_rib_x_22_mesh-mesh-positions"/>
        </vertices>
        <triangles material="galvanized_trailer_steel-material" count="12">
          <input semantic="VERTEX" source="#corrugation_rib_x_22_mesh-mesh-vertices" offset="0"/>
          <input semantic="NORMAL" source="#corrugation_rib_x_22_mesh-mesh-normals" offset="1"/>
          <p>1 0 3 0 0 0 7 1 5 1 4 1 4 2 1 2 0 2 5 3 2 3 1 3 6 4 3 4 2 4 7 5 0 5 3 5 1 6 2 6 3 6 7 7 6 7 5 7 4 8 5 8 1 8 5 3 6 3 2 3 6 9 7 9 3 9 7 5 4 5 0 5</p>
        </triangles>
      </mesh>
    </geometry>
    <geometry id="corrugation_rib_x_14_mesh-mesh" name="corrugation rib x=14 mesh">
      <mesh>
        <source id="corrugation_rib_x_14_mesh-mesh-positions">
          <float_array id="corrugation_rib_x_14_mesh-mesh-positions-array" count="24">15.58163 -0.07592064 2.049585 15.65783 3.734079 2.049585 15.68577 3.733521 2.049585 15.60957 -0.07647931 2.049585 15.58163 -0.07592064 2.069905 15.65783 3.734079 2.069905 15.68577 3.733521 2.069905 15.60957 -0.07647931 2.069905</float_array>
          <technique_common>
            <accessor source="#corrugation_rib_x_14_mesh-mesh-positions-array" count="8" stride="3">
              <param name="X" type="float"/>
              <param name="Y" type="float"/>
              <param name="Z" type="float"/>
            </accessor>
          </technique_common>
        </source>
        <source id="corrugation_rib_x_14_mesh-mesh-normals">
          <float_array id="corrugation_rib_x_14_mesh-mesh-normals-array" count="36">5.29623e-6 0 -1 -8.95679e-6 0 1 -0.9998 0.01999652 0 0.01999151 0.9998002 0 0.9998 -0.01999652 0 -0.01999437 -0.9998001 0 0 0 -1 9.55628e-7 0 1 -0.9998001 0.01999551 0 0.01999402 0.9998001 0 0.9998001 -0.01999551 0 -0.0199961 -0.9998002 0</float_array>
          <technique_common>
            <accessor source="#corrugation_rib_x_14_mesh-mesh-normals-array" count="12" stride="3">
              <param name="X" type="float"/>
              <param name="Y" type="float"/>
              <param name="Z" type="float"/>
            </accessor>
          </technique_common>
        </source>
        <vertices id="corrugation_rib_x_14_mesh-mesh-vertices">
          <input semantic="POSITION" source="#corrugation_rib_x_14_mesh-mesh-positions"/>
        </vertices>
        <triangles material="galvanized_trailer_steel-material" count="12">
          <input semantic="VERTEX" source="#corrugation_rib_x_14_mesh-mesh-vertices" offset="0"/>
          <input semantic="NORMAL" source="#corrugation_rib_x_14_mesh-mesh-normals" offset="1"/>
          <p>1 0 3 0 0 0 7 1 5 1 4 1 4 2 1 2 0 2 5 3 2 3 1 3 6 4 3 4 2 4 7 5 0 5 3 5 1 6 2 6 3 6 7 7 6 7 5 7 4 8 5 8 1 8 5 9 6 9 2 9 6 10 7 10 3 10 7 11 4 11 0 11</p>
        </triangles>
      </mesh>
    </geometry>
    <geometry id="corrugation_rib_x_6_mesh-mesh" name="corrugation rib x=6 mesh">
      <mesh>
        <source id="corrugation_rib_x_6_mesh-mesh-positions">
          <float_array id="corrugation_rib_x_6_mesh-mesh-positions-array" count="24">15.37843 -0.07592064 2.065215 15.45463 3.734079 2.065215 15.48257 3.733521 2.065215 15.40637 -0.07647931 2.065215 15.37843 -0.07592064 2.085535 15.45463 3.734079 2.085535 15.48257 3.733521 2.085535 15.40637 -0.07647931 2.085535</float_array>
          <technique_common>
            <accessor source="#corrugation_rib_x_6_mesh-mesh-positions-array" count="8" stride="3">
              <param name="X" type="float"/>
              <param name="Y" type="float"/>
              <param name="Z" type="float"/>
            </accessor>
          </technique_common>
        </source>
        <source id="corrugation_rib_x_6_mesh-mesh-normals">
          <float_array id="corrugation_rib_x_6_mesh-mesh-normals-array" count="33">1.14435e-5 0 -1 0 0 1 -0.9998001 0.01999551 0 0.01999568 0.9998001 0 0.9998001 -0.01999551 0 -0.01999646 -0.9998 0 -8.95709e-6 0 -1 -1.83253e-6 0 1 -0.9998001 0.01999628 0 0.01999151 0.9998002 0 0.9998001 -0.01999628 0</float_array>
          <technique_common>
            <accessor source="#corrugation_rib_x_6_mesh-mesh-normals-array" count="11" stride="3">
              <param name="X" type="float"/>
              <param name="Y" type="float"/>
              <param name="Z" type="float"/>
            </accessor>
          </technique_common>
        </source>
        <vertices id="corrugation_rib_x_6_mesh-mesh-vertices">
          <input semantic="POSITION" source="#corrugation_rib_x_6_mesh-mesh-positions"/>
        </vertices>
        <triangles material="galvanized_trailer_steel-material" count="12">
          <input semantic="VERTEX" source="#corrugation_rib_x_6_mesh-mesh-vertices" offset="0"/>
          <input semantic="NORMAL" source="#corrugation_rib_x_6_mesh-mesh-normals" offset="1"/>
          <p>1 0 3 0 0 0 7 1 5 1 4 1 4 2 1 2 0 2 5 3 2 3 1 3 6 4 3 4 2 4 7 5 0 5 3 5 1 6 2 6 3 6 7 7 6 7 5 7 4 8 5 8 1 8 5 9 6 9 2 9 6 10 7 10 3 10 7 5 4 5 0 5</p>
        </triangles>
      </mesh>
    </geometry>
    <geometry id="corrugation_rib_x_-2_mesh-mesh" name="corrugation rib x=-2 mesh">
      <mesh>
        <source id="corrugation_rib_x_-2_mesh-mesh-positions">
          <float_array id="corrugation_rib_x_-2_mesh-mesh-positions-array" count="24">15.17523 -0.07592064 2.080846 15.25143 3.734079 2.080846 15.27937 3.733521 2.080846 15.20317 -0.07647931 2.080846 15.17523 -0.07592064 2.101166 15.25143 3.734079 2.101166 15.27937 3.733521 2.101166 15.20317 -0.07647931 2.101166</float_array>
          <technique_common>
            <accessor source="#corrugation_rib_x_-2_mesh-mesh-positions-array" count="8" stride="3">
              <param name="X" type="float"/>
              <param name="Y" type="float"/>
              <param name="Z" type="float"/>
            </accessor>
          </technique_common>
        </source>
        <source id="corrugation_rib_x_-2_mesh-mesh-normals">
          <float_array id="corrugation_rib_x_-2_mesh-mesh-normals-array" count="36">8.63126e-6 0 -1 0 0 1 -0.9998001 0.0199958 0 0.01999402 0.9998001 0 0.9998001 -0.0199958 0 -0.01999479 -0.9998001 0 0 0 -1 4.33188e-6 0 1 -0.9998001 0.01999628 0 0.01999193 0.9998002 0 0.9998 -0.01999652 0 -0.0199961 -0.9998002 0</float_array>
          <technique_common>
            <accessor source="#corrugation_rib_x_-2_mesh-mesh-normals-array" count="12" stride="3">
              <param name="X" type="float"/>
              <param name="Y" type="float"/>
              <param name="Z" type="float"/>
            </accessor>
          </technique_common>
        </source>
        <vertices id="corrugation_rib_x_-2_mesh-mesh-vertices">
          <input semantic="POSITION" source="#corrugation_rib_x_-2_mesh-mesh-positions"/>
        </vertices>
        <triangles material="galvanized_trailer_steel-material" count="12">
          <input semantic="VERTEX" source="#corrugation_rib_x_-2_mesh-mesh-vertices" offset="0"/>
          <input semantic="NORMAL" source="#corrugation_rib_x_-2_mesh-mesh-normals" offset="1"/>
          <p>1 0 3 0 0 0 7 1 5 1 4 1 4 2 1 2 0 2 5 3 2 3 1 3 6 4 3 4 2 4 7 5 0 5 3 5 1 6 2 6 3 6 7 7 6 7 5 7 4 8 5 8 1 8 5 9 6 9 2 9 6 10 7 10 3 10 7 11 4 11 0 11</p>
        </triangles>
      </mesh>
    </geometry>
    <geometry id="single_corrugated_metal_shed_roof_mesh-mesh" name="single corrugated metal shed roof mesh">
      <mesh>
        <source id="single_corrugated_metal_shed_roof_mesh-mesh-positions">
          <float_array id="single_corrugated_metal_shed_roof_mesh-mesh-positions-array" count="24">15.1638 -0.0762 2.0828 17.145 -0.0762 1.9304 17.145 3.7338 1.9304 15.1638 3.7338 2.0828 15.16146 -0.0762 2.05241 17.14266 -0.0762 1.90001 17.14266 3.7338 1.90001 15.16146 3.7338 2.05241</float_array>
          <technique_common>
            <accessor source="#single_corrugated_metal_shed_roof_mesh-mesh-positions-array" count="8" stride="3">
              <param name="X" type="float"/>
              <param name="Y" type="float"/>
              <param name="Z" type="float"/>
            </accessor>
          </technique_common>
        </source>
        <source id="single_corrugated_metal_shed_roof_mesh-mesh-normals">
          <float_array id="single_corrugated_metal_shed_roof_mesh-mesh-normals-array" count="36">0.07669657 0 0.9970545 -0.07669657 0 -0.9970545 0 1 0 0 -1 0 0.9970529 0 -0.0767188 -0.9970552 0 0.07668769 0.07669627 0 0.9970546 -0.07669633 0 -0.9970546 0 1 8.73424e-6 0 -1 0 0.9970528 0 -0.07671946 -0.9970551 0 0.07668834</float_array>
          <technique_common>
            <accessor source="#single_corrugated_metal_shed_roof_mesh-mesh-normals-array" count="12" stride="3">
              <param name="X" type="float"/>
              <param name="Y" type="float"/>
              <param name="Z" type="float"/>
            </accessor>
          </technique_common>
        </source>
        <vertices id="single_corrugated_metal_shed_roof_mesh-mesh-vertices">
          <input semantic="POSITION" source="#single_corrugated_metal_shed_roof_mesh-mesh-positions"/>
        </vertices>
        <triangles material="corrugated_galvanized_metal-material" count="12">
          <input semantic="VERTEX" source="#single_corrugated_metal_shed_roof_mesh-mesh-vertices" offset="0"/>
          <input semantic="NORMAL" source="#single_corrugated_metal_shed_roof_mesh-mesh-normals" offset="1"/>
          <p>1 0 3 0 0 0 7 1 5 1 4 1 3 2 6 2 7 2 0 3 5 3 1 3 1 4 6 4 2 4 3 5 4 5 0 5 1 6 2 6 3 6 7 7 6 7 5 7 3 8 2 8 6 8 0 9 4 9 5 9 1 10 5 10 6 10 3 11 7 11 4 11</p>
        </triangles>
      </mesh>
    </geometry>
  </library_geometries>
  <library_visual_scenes>
    <visual_scene id="Scene" name="Scene">
      <node id="corrugation_rib_x_70" name="corrugation rib x=70" type="NODE">
        <matrix sid="transform">1 0 0 0 0 1 0 0 0 0 1 0 0 0 0 1</matrix>
        <instance_geometry url="#corrugation_rib_x_70_mesh-mesh" name="corrugation rib x=70">
          <bind_material>
            <technique_common>
              <instance_material symbol="galvanized_trailer_steel-material" target="#galvanized_trailer_steel-material"/>
            </technique_common>
          </bind_material>
        </instance_geometry>
      </node>
      <node id="corrugation_rib_x_62" name="corrugation rib x=62" type="NODE">
        <matrix sid="transform">1 0 0 0 0 1 0 0 0 0 1 0 0 0 0 1</matrix>
        <instance_geometry url="#corrugation_rib_x_62_mesh-mesh" name="corrugation rib x=62">
          <bind_material>
            <technique_common>
              <instance_material symbol="galvanized_trailer_steel-material" target="#galvanized_trailer_steel-material"/>
            </technique_common>
          </bind_material>
        </instance_geometry>
      </node>
      <node id="corrugation_rib_x_54" name="corrugation rib x=54" type="NODE">
        <matrix sid="transform">1 0 0 0 0 1 0 0 0 0 1 0 0 0 0 1</matrix>
        <instance_geometry url="#corrugation_rib_x_54_mesh-mesh" name="corrugation rib x=54">
          <bind_material>
            <technique_common>
              <instance_material symbol="galvanized_trailer_steel-material" target="#galvanized_trailer_steel-material"/>
            </technique_common>
          </bind_material>
        </instance_geometry>
      </node>
      <node id="corrugation_rib_x_46" name="corrugation rib x=46" type="NODE">
        <matrix sid="transform">1 0 0 0 0 1 0 0 0 0 1 0 0 0 0 1</matrix>
        <instance_geometry url="#corrugation_rib_x_46_mesh-mesh" name="corrugation rib x=46">
          <bind_material>
            <technique_common>
              <instance_material symbol="galvanized_trailer_steel-material" target="#galvanized_trailer_steel-material"/>
            </technique_common>
          </bind_material>
        </instance_geometry>
      </node>
      <node id="corrugation_rib_x_38" name="corrugation rib x=38" type="NODE">
        <matrix sid="transform">1 0 0 0 0 1 0 0 0 0 1 0 0 0 0 1</matrix>
        <instance_geometry url="#corrugation_rib_x_38_mesh-mesh" name="corrugation rib x=38">
          <bind_material>
            <technique_common>
              <instance_material symbol="galvanized_trailer_steel-material" target="#galvanized_trailer_steel-material"/>
            </technique_common>
          </bind_material>
        </instance_geometry>
      </node>
      <node id="corrugation_rib_x_30" name="corrugation rib x=30" type="NODE">
        <matrix sid="transform">1 0 0 0 0 1 0 0 0 0 1 0 0 0 0 1</matrix>
        <instance_geometry url="#corrugation_rib_x_30_mesh-mesh" name="corrugation rib x=30">
          <bind_material>
            <technique_common>
              <instance_material symbol="galvanized_trailer_steel-material" target="#galvanized_trailer_steel-material"/>
            </technique_common>
          </bind_material>
        </instance_geometry>
      </node>
      <node id="corrugation_rib_x_22" name="corrugation rib x=22" type="NODE">
        <matrix sid="transform">1 0 0 0 0 1 0 0 0 0 1 0 0 0 0 1</matrix>
        <instance_geometry url="#corrugation_rib_x_22_mesh-mesh" name="corrugation rib x=22">
          <bind_material>
            <technique_common>
              <instance_material symbol="galvanized_trailer_steel-material" target="#galvanized_trailer_steel-material"/>
            </technique_common>
          </bind_material>
        </instance_geometry>
      </node>
      <node id="corrugation_rib_x_14" name="corrugation rib x=14" type="NODE">
        <matrix sid="transform">1 0 0 0 0 1 0 0 0 0 1 0 0 0 0 1</matrix>
        <instance_geometry url="#corrugation_rib_x_14_mesh-mesh" name="corrugation rib x=14">
          <bind_material>
            <technique_common>
              <instance_material symbol="galvanized_trailer_steel-material" target="#galvanized_trailer_steel-material"/>
            </technique_common>
          </bind_material>
        </instance_geometry>
      </node>
      <node id="corrugation_rib_x_6" name="corrugation rib x=6" type="NODE">
        <matrix sid="transform">1 0 0 0 0 1 0 0 0 0 1 0 0 0 0 1</matrix>
        <instance_geometry url="#corrugation_rib_x_6_mesh-mesh" name="corrugation rib x=6">
          <bind_material>
            <technique_common>
              <instance_material symbol="galvanized_trailer_steel-material" target="#galvanized_trailer_steel-material"/>
            </technique_common>
          </bind_material>
        </instance_geometry>
      </node>
      <node id="corrugation_rib_x_-2" name="corrugation rib x=-2" type="NODE">
        <matrix sid="transform">1 0 0 0 0 1 0 0 0 0 1 0 0 0 0 1</matrix>
        <instance_geometry url="#corrugation_rib_x_-2_mesh-mesh" name="corrugation rib x=-2">
          <bind_material>
            <technique_common>
              <instance_material symbol="galvanized_trailer_steel-material" target="#galvanized_trailer_steel-material"/>
            </technique_common>
          </bind_material>
        </instance_geometry>
      </node>
      <node id="single_corrugated_metal_shed_roof" name="single corrugated metal shed roof" type="NODE">
        <matrix sid="transform">1 0 0 0 0 1 0 0 0 0 1 0 0 0 0 1</matrix>
        <instance_geometry url="#single_corrugated_metal_shed_roof_mesh-mesh" name="single corrugated metal shed roof">
          <bind_material>
            <technique_common>
              <instance_material symbol="corrugated_galvanized_metal-material" target="#corrugated_galvanized_metal-material"/>
            </technique_common>
          </bind_material>
        </instance_geometry>
      </node>
    </visual_scene>
  </library_visual_scenes>
  <scene>
    <instance_visual_scene url="#Scene"/>
  </scene>
</COLLADA>