<?xml version="1.0" encoding="utf-8"?>
<COLLADA xmlns="http://www.collada.org/2005/11/COLLADASchema" version="1.4.1" xmlns:xsi="http://www.w3.org/2001/XMLSchema-instance">
  <asset>
    <contributor>
      <author>Blender User</author>
      <authoring_tool>Blender 3.4.1 commit date:2022-12-19, commit time:17:00, hash:55485cb379f7</authoring_tool>
    </contributor>
    <created>2026-05-24T18:01:53</created>
    <modified>2026-05-24T18:01:53</modified>
    <unit name="meter" meter="1"/>
    <up_axis>Z_UP</up_axis>
  </asset>
  <library_effects>
    <effect id="standard_2x_framing_lumber-effect">
      <profile_COMMON>
        <technique sid="common">
          <lambert>
            <emission>
              <color sid="emission">0 0 0 1</color>
            </emission>
            <diffuse>
              <color sid="diffuse">0.8392157 0.6666667 0.4156863 1</color>
            </diffuse>
            <reflectivity>
              <float sid="specular">0.5</float>
            </reflectivity>
          </lambert>
        </technique>
      </profile_COMMON>
    </effect>
    <effect id="OSB___rough_utility_panels-effect">
      <profile_COMMON>
        <technique sid="common">
          <lambert>
            <emission>
              <color sid="emission">0 0 0 1</color>
            </emission>
            <diffuse>
              <color sid="diffuse">0.6745098 0.5176471 0.2980392 1</color>
            </diffuse>
            <reflectivity>
              <float sid="specular">0.5</float>
            </reflectivity>
          </lambert>
        </technique>
      </profile_COMMON>
    </effect>
  </library_effects>
  <library_images/>
  <library_materials>
    <material id="standard_2x_framing_lumber-material" name="standard 2x framing lumber">
      <instance_effect url="#standard_2x_framing_lumber-effect"/>
    </material>
    <material id="OSB___rough_utility_panels-material" name="OSB / rough utility panels">
      <instance_effect url="#OSB___rough_utility_panels-effect"/>
    </material>
  </library_materials>
  <library_geometries>
    <geometry id="visible_2x_stud_cutaway_144_mesh-mesh" name="visible 2x stud cutaway 144 mesh">
      <mesh>
        <source id="visible_2x_stud_cutaway_144_mesh-mesh-positions">
          <float_array id="visible_2x_stud_cutaway_144_mesh-mesh-positions-array" count="24">-0.5 -0.5 -0.5 -0.5 -0.5 0.5 -0.5 0.5 -0.5 -0.5 0.5 0.5 0.5 -0.5 -0.5 0.5 -0.5 0.5 0.5 0.5 -0.5 0.5 0.5 0.5</float_array>
          <technique_common>
            <accessor source="#visible_2x_stud_cutaway_144_mesh-mesh-positions-array" count="8" stride="3">
              <param name="X" type="float"/>
              <param name="Y" type="float"/>
              <param name="Z" type="float"/>
            </accessor>
          </technique_common>
        </source>
        <source id="visible_2x_stud_cutaway_144_mesh-mesh-normals">
          <float_array id="visible_2x_stud_cutaway_144_mesh-mesh-normals-array" count="18">-1 0 0 0 1 0 1 0 0 0 -1 0 0 0 -1 0 0 1</float_array>
          <technique_common>
            <accessor source="#visible_2x_stud_cutaway_144_mesh-mesh-normals-array" count="6" stride="3">
              <param name="X" type="float"/>
              <param name="Y" type="float"/>
              <param name="Z" type="float"/>
            </accessor>
          </technique_common>
        </source>
        <source id="visible_2x_stud_cutaway_144_mesh-mesh-map-0">
          <float_array id="visible_2x_stud_cutaway_144_mesh-mesh-map-0-array" count="72">0.625 0 0.375 0.25 0.375 0 0.625 0.25 0.375 0.5 0.375 0.25 0.625 0.5 0.375 0.75 0.375 0.5 0.625 0.75 0.375 1 0.375 0.75 0.375 0.5 0.125 0.75 0.125 0.5 0.875 0.5 0.625 0.75 0.625 0.5 0.625 0 0.625 0.25 0.375 0.25 0.625 0.25 0.625 0.5 0.375 0.5 0.625 0.5 0.625 0.75 0.375 0.75 0.625 0.75 0.625 1 0.375 1 0.375 0.5 0.375 0.75 0.125 0.75 0.875 0.5 0.875 0.75 0.625 0.75</float_array>
          <technique_common>
            <accessor source="#visible_2x_stud_cutaway_144_mesh-mesh-map-0-array" count="36" stride="2">
              <param name="S" type="float"/>
              <param name="T" type="float"/>
            </accessor>
          </technique_common>
        </source>
        <vertices id="visible_2x_stud_cutaway_144_mesh-mesh-vertices">
          <input semantic="POSITION" source="#visible_2x_stud_cutaway_144_mesh-mesh-positions"/>
        </vertices>
        <triangles material="standard_2x_framing_lumber-material" count="12">
          <input semantic="VERTEX" source="#visible_2x_stud_cutaway_144_mesh-mesh-vertices" offset="0"/>
          <input semantic="NORMAL" source="#visible_2x_stud_cutaway_144_mesh-mesh-normals" offset="1"/>
          <input semantic="TEXCOORD" source="#visible_2x_stud_cutaway_144_mesh-mesh-map-0" offset="2" set="0"/>
          <p>1 0 0 2 0 1 0 0 2 3 1 3 6 1 4 2 1 5 7 2 6 4 2 7 6 2 8 5 3 9 0 3 10 4 3 11 6 4 12 0 4 13 2 4 14 3 5 15 5 5 16 7 5 17 1 0 18 3 0 19 2 0 20 3 1 21 7 1 22 6 1 23 7 2 24 5 2 25 4 2 26 5 3 27 1 3 28 0 3 29 6 4 30 4 4 31 0 4 32 3 5 33 1 5 34 5 5 35</p>
        </triangles>
      </mesh>
    </geometry>
    <geometry id="visible_2x_stud_left_144_mesh-mesh" name="visible 2x stud left 144 mesh">
      <mesh>
        <source id="visible_2x_stud_left_144_mesh-mesh-positions">
          <float_array id="visible_2x_stud_left_144_mesh-mesh-positions-array" count="24">-0.5 -0.5 -0.5 -0.5 -0.5 0.5 -0.5 0.5 -0.5 -0.5 0.5 0.5 0.5 -0.5 -0.5 0.5 -0.5 0.5 0.5 0.5 -0.5 0.5 0.5 0.5</float_array>
          <technique_common>
            <accessor source="#visible_2x_stud_left_144_mesh-mesh-positions-array" count="8" stride="3">
              <param name="X" type="float"/>
              <param name="Y" type="float"/>
              <param name="Z" type="float"/>
            </accessor>
          </technique_common>
        </source>
        <source id="visible_2x_stud_left_144_mesh-mesh-normals">
          <float_array id="visible_2x_stud_left_144_mesh-mesh-normals-array" count="18">-1 0 0 0 1 0 1 0 0 0 -1 0 0 0 -1 0 0 1</float_array>
          <technique_common>
            <accessor source="#visible_2x_stud_left_144_mesh-mesh-normals-array" count="6" stride="3">
              <param name="X" type="float"/>
              <param name="Y" type="float"/>
              <param name="Z" type="float"/>
            </accessor>
          </technique_common>
        </source>
        <source id="visible_2x_stud_left_144_mesh-mesh-map-0">
          <float_array id="visible_2x_stud_left_144_mesh-mesh-map-0-array" count="72">0.625 0 0.375 0.25 0.375 0 0.625 0.25 0.375 0.5 0.375 0.25 0.625 0.5 0.375 0.75 0.375 0.5 0.625 0.75 0.375 1 0.375 0.75 0.375 0.5 0.125 0.75 0.125 0.5 0.875 0.5 0.625 0.75 0.625 0.5 0.625 0 0.625 0.25 0.375 0.25 0.625 0.25 0.625 0.5 0.375 0.5 0.625 0.5 0.625 0.75 0.375 0.75 0.625 0.75 0.625 1 0.375 1 0.375 0.5 0.375 0.75 0.125 0.75 0.875 0.5 0.875 0.75 0.625 0.75</float_array>
          <technique_common>
            <accessor source="#visible_2x_stud_left_144_mesh-mesh-map-0-array" count="36" stride="2">
              <param name="S" type="float"/>
              <param name="T" type="float"/>
            </accessor>
          </technique_common>
        </source>
        <vertices id="visible_2x_stud_left_144_mesh-mesh-vertices">
          <input semantic="POSITION" source="#visible_2x_stud_left_144_mesh-mesh-positions"/>
        </vertices>
        <triangles material="standard_2x_framing_lumber-material" count="12">
          <input semantic="VERTEX" source="#visible_2x_stud_left_144_mesh-mesh-vertices" offset="0"/>
          <input semantic="NORMAL" source="#visible_2x_stud_left_144_mesh-mesh-normals" offset="1"/>
          <input semantic="TEXCOORD" source="#visible_2x_stud_left_144_mesh-mesh-map-0" offset="2" set="0"/>
          <p>1 0 0 2 0 1 0 0 2 3 1 3 6 1 4 2 1 5 7 2 6 4 2 7 6 2 8 5 3 9 0 3 10 4 3 11 6 4 12 0 4 13 2 4 14 3 5 15 5 5 16 7 5 17 1 0 18 3 0 19 2 0 20 3 1 21 7 1 22 6 1 23 7 2 24 5 2 25 4 2 26 5 3 27 1 3 28 0 3 29 6 4 30 4 4 31 0 4 32 3 5 33 1 5 34 5 5 35</p>
        </triangles>
      </mesh>
    </geometry>
    <geometry id="visible_2x_stud_cutaway_128_mesh-mesh" name="visible 2x stud cutaway 128 mesh">
      <mesh>
        <source id="visible_2x_stud_cutaway_128_mesh-mesh-positions">
          <float_array id="visible_2x_stud_cutaway_128_mesh-mesh-positions-array" count="24">-0.5 -0.5 -0.5 -0.5 -0.5 0.5 -0.5 0.5 -0.5 -0.5 0.5 0.5 0.5 -0.5 -0.5 0.5 -0.5 0.5 0.5 0.5 -0.5 0.5 0.5 0.5</float_array>
          <technique_common>
            <accessor source="#visible_2x_stud_cutaway_128_mesh-mesh-positions-array" count="8" stride="3">
              <param name="X" type="float"/>
              <param name="Y" type="float"/>
              <param name="Z" type="float"/>
            </accessor>
          </technique_common>
        </source>
        <source id="visible_2x_stud_cutaway_128_mesh-mesh-normals">
          <float_array id="visible_2x_stud_cutaway_128_mesh-mesh-normals-array" count="18">-1 0 0 0 1 0 1 0 0 0 -1 0 0 0 -1 0 0 1</float_array>
          <technique_common>
            <accessor source="#visible_2x_stud_cutaway_128_mesh-mesh-normals-array" count="6" stride="3">
              <param name="X" type="float"/>
              <param name="Y" type="float"/>
              <param name="Z" type="float"/>
            </accessor>
          </technique_common>
        </source>
        <source id="visible_2x_stud_cutaway_128_mesh-mesh-map-0">
          <float_array id="visible_2x_stud_cutaway_128_mesh-mesh-map-0-array" count="72">0.625 0 0.375 0.25 0.375 0 0.625 0.25 0.375 0.5 0.375 0.25 0.625 0.5 0.375 0.75 0.375 0.5 0.625 0.75 0.375 1 0.375 0.75 0.375 0.5 0.125 0.75 0.125 0.5 0.875 0.5 0.625 0.75 0.625 0.5 0.625 0 0.625 0.25 0.375 0.25 0.625 0.25 0.625 0.5 0.375 0.5 0.625 0.5 0.625 0.75 0.375 0.75 0.625 0.75 0.625 1 0.375 1 0.375 0.5 0.375 0.75 0.125 0.75 0.875 0.5 0.875 0.75 0.625 0.75</float_array>
          <technique_common>
            <accessor source="#visible_2x_stud_cutaway_128_mesh-mesh-map-0-array" count="36" stride="2">
              <param name="S" type="float"/>
              <param name="T" type="float"/>
            </accessor>
          </technique_common>
        </source>
        <vertices id="visible_2x_stud_cutaway_128_mesh-mesh-vertices">
          <input semantic="POSITION" source="#visible_2x_stud_cutaway_128_mesh-mesh-positions"/>
        </vertices>
        <triangles material="standard_2x_framing_lumber-material" count="12">
          <input semantic="VERTEX" source="#visible_2x_stud_cutaway_128_mesh-mesh-vertices" offset="0"/>
          <input semantic="NORMAL" source="#visible_2x_stud_cutaway_128_mesh-mesh-normals" offset="1"/>
          <input semantic="TEXCOORD" source="#visible_2x_stud_cutaway_128_mesh-mesh-map-0" offset="2" set="0"/>
          <p>1 0 0 2 0 1 0 0 2 3 1 3 6 1 4 2 1 5 7 2 6 4 2 7 6 2 8 5 3 9 0 3 10 4 3 11 6 4 12 0 4 13 2 4 14 3 5 15 5 5 16 7 5 17 1 0 18 3 0 19 2 0 20 3 1 21 7 1 22 6 1 23 7 2 24 5 2 25 4 2 26 5 3 27 1 3 28 0 3 29 6 4 30 4 4 31 0 4 32 3 5 33 1 5 34 5 5 35</p>
        </triangles>
      </mesh>
    </geometry>
    <geometry id="visible_2x_stud_left_128_mesh-mesh" name="visible 2x stud left 128 mesh">
      <mesh>
        <source id="visible_2x_stud_left_128_mesh-mesh-positions">
          <float_array id="visible_2x_stud_left_128_mesh-mesh-positions-array" count="24">-0.5 -0.5 -0.5 -0.5 -0.5 0.5 -0.5 0.5 -0.5 -0.5 0.5 0.5 0.5 -0.5 -0.5 0.5 -0.5 0.5 0.5 0.5 -0.5 0.5 0.5 0.5</float_array>
          <technique_common>
            <accessor source="#visible_2x_stud_left_128_mesh-mesh-positions-array" count="8" stride="3">
              <param name="X" type="float"/>
              <param name="Y" type="float"/>
              <param name="Z" type="float"/>
            </accessor>
          </technique_common>
        </source>
        <source id="visible_2x_stud_left_128_mesh-mesh-normals">
          <float_array id="visible_2x_stud_left_128_mesh-mesh-normals-array" count="18">-1 0 0 0 1 0 1 0 0 0 -1 0 0 0 -1 0 0 1</float_array>
          <technique_common>
            <accessor source="#visible_2x_stud_left_128_mesh-mesh-normals-array" count="6" stride="3">
              <param name="X" type="float"/>
              <param name="Y" type="float"/>
              <param name="Z" type="float"/>
            </accessor>
          </technique_common>
        </source>
        <source id="visible_2x_stud_left_128_mesh-mesh-map-0">
          <float_array id="visible_2x_stud_left_128_mesh-mesh-map-0-array" count="72">0.625 0 0.375 0.25 0.375 0 0.625 0.25 0.375 0.5 0.375 0.25 0.625 0.5 0.375 0.75 0.375 0.5 0.625 0.75 0.375 1 0.375 0.75 0.375 0.5 0.125 0.75 0.125 0.5 0.875 0.5 0.625 0.75 0.625 0.5 0.625 0 0.625 0.25 0.375 0.25 0.625 0.25 0.625 0.5 0.375 0.5 0.625 0.5 0.625 0.75 0.375 0.75 0.625 0.75 0.625 1 0.375 1 0.375 0.5 0.375 0.75 0.125 0.75 0.875 0.5 0.875 0.75 0.625 0.75</float_array>
          <technique_common>
            <accessor source="#visible_2x_stud_left_128_mesh-mesh-map-0-array" count="36" stride="2">
              <param name="S" type="float"/>
              <param name="T" type="float"/>
            </accessor>
          </technique_common>
        </source>
        <vertices id="visible_2x_stud_left_128_mesh-mesh-vertices">
          <input semantic="POSITION" source="#visible_2x_stud_left_128_mesh-mesh-positions"/>
        </vertices>
        <triangles material="standard_2x_framing_lumber-material" count="12">
          <input semantic="VERTEX" source="#visible_2x_stud_left_128_mesh-mesh-vertices" offset="0"/>
          <input semantic="NORMAL" source="#visible_2x_stud_left_128_mesh-mesh-normals" offset="1"/>
          <input semantic="TEXCOORD" source="#visible_2x_stud_left_128_mesh-mesh-map-0" offset="2" set="0"/>
          <p>1 0 0 2 0 1 0 0 2 3 1 3 6 1 4 2 1 5 7 2 6 4 2 7 6 2 8 5 3 9 0 3 10 4 3 11 6 4 12 0 4 13 2 4 14 3 5 15 5 5 16 7 5 17 1 0 18 3 0 19 2 0 20 3 1 21 7 1 22 6 1 23 7 2 24 5 2 25 4 2 26 5 3 27 1 3 28 0 3 29 6 4 30 4 4 31 0 4 32 3 5 33 1 5 34 5 5 35</p>
        </triangles>
      </mesh>
    </geometry>
    <geometry id="visible_2x_stud_cutaway_112_mesh-mesh" name="visible 2x stud cutaway 112 mesh">
      <mesh>
        <source id="visible_2x_stud_cutaway_112_mesh-mesh-positions">
          <float_array id="visible_2x_stud_cutaway_112_mesh-mesh-positions-array" count="24">-0.5 -0.5 -0.5 -0.5 -0.5 0.5 -0.5 0.5 -0.5 -0.5 0.5 0.5 0.5 -0.5 -0.5 0.5 -0.5 0.5 0.5 0.5 -0.5 0.5 0.5 0.5</float_array>
          <technique_common>
            <accessor source="#visible_2x_stud_cutaway_112_mesh-mesh-positions-array" count="8" stride="3">
              <param name="X" type="float"/>
              <param name="Y" type="float"/>
              <param name="Z" type="float"/>
            </accessor>
          </technique_common>
        </source>
        <source id="visible_2x_stud_cutaway_112_mesh-mesh-normals">
          <float_array id="visible_2x_stud_cutaway_112_mesh-mesh-normals-array" count="18">-1 0 0 0 1 0 1 0 0 0 -1 0 0 0 -1 0 0 1</float_array>
          <technique_common>
            <accessor source="#visible_2x_stud_cutaway_112_mesh-mesh-normals-array" count="6" stride="3">
              <param name="X" type="float"/>
              <param name="Y" type="float"/>
              <param name="Z" type="float"/>
            </accessor>
          </technique_common>
        </source>
        <source id="visible_2x_stud_cutaway_112_mesh-mesh-map-0">
          <float_array id="visible_2x_stud_cutaway_112_mesh-mesh-map-0-array" count="72">0.625 0 0.375 0.25 0.375 0 0.625 0.25 0.375 0.5 0.375 0.25 0.625 0.5 0.375 0.75 0.375 0.5 0.625 0.75 0.375 1 0.375 0.75 0.375 0.5 0.125 0.75 0.125 0.5 0.875 0.5 0.625 0.75 0.625 0.5 0.625 0 0.625 0.25 0.375 0.25 0.625 0.25 0.625 0.5 0.375 0.5 0.625 0.5 0.625 0.75 0.375 0.75 0.625 0.75 0.625 1 0.375 1 0.375 0.5 0.375 0.75 0.125 0.75 0.875 0.5 0.875 0.75 0.625 0.75</float_array>
          <technique_common>
            <accessor source="#visible_2x_stud_cutaway_112_mesh-mesh-map-0-array" count="36" stride="2">
              <param name="S" type="float"/>
              <param name="T" type="float"/>
            </accessor>
          </technique_common>
        </source>
        <vertices id="visible_2x_stud_cutaway_112_mesh-mesh-vertices">
          <input semantic="POSITION" source="#visible_2x_stud_cutaway_112_mesh-mesh-positions"/>
        </vertices>
        <triangles material="standard_2x_framing_lumber-material" count="12">
          <input semantic="VERTEX" source="#visible_2x_stud_cutaway_112_mesh-mesh-vertices" offset="0"/>
          <input semantic="NORMAL" source="#visible_2x_stud_cutaway_112_mesh-mesh-normals" offset="1"/>
          <input semantic="TEXCOORD" source="#visible_2x_stud_cutaway_112_mesh-mesh-map-0" offset="2" set="0"/>
          <p>1 0 0 2 0 1 0 0 2 3 1 3 6 1 4 2 1 5 7 2 6 4 2 7 6 2 8 5 3 9 0 3 10 4 3 11 6 4 12 0 4 13 2 4 14 3 5 15 5 5 16 7 5 17 1 0 18 3 0 19 2 0 20 3 1 21 7 1 22 6 1 23 7 2 24 5 2 25 4 2 26 5 3 27 1 3 28 0 3 29 6 4 30 4 4 31 0 4 32 3 5 33 1 5 34 5 5 35</p>
        </triangles>
      </mesh>
    </geometry>
    <geometry id="visible_2x_stud_left_112_mesh-mesh" name="visible 2x stud left 112 mesh">
      <mesh>
        <source id="visible_2x_stud_left_112_mesh-mesh-positions">
          <float_array id="visible_2x_stud_left_112_mesh-mesh-positions-array" count="24">-0.5 -0.5 -0.5 -0.5 -0.5 0.5 -0.5 0.5 -0.5 -0.5 0.5 0.5 0.5 -0.5 -0.5 0.5 -0.5 0.5 0.5 0.5 -0.5 0.5 0.5 0.5</float_array>
          <technique_common>
            <accessor source="#visible_2x_stud_left_112_mesh-mesh-positions-array" count="8" stride="3">
              <param name="X" type="float"/>
              <param name="Y" type="float"/>
              <param name="Z" type="float"/>
            </accessor>
          </technique_common>
        </source>
        <source id="visible_2x_stud_left_112_mesh-mesh-normals">
          <float_array id="visible_2x_stud_left_112_mesh-mesh-normals-array" count="18">-1 0 0 0 1 0 1 0 0 0 -1 0 0 0 -1 0 0 1</float_array>
          <technique_common>
            <accessor source="#visible_2x_stud_left_112_mesh-mesh-normals-array" count="6" stride="3">
              <param name="X" type="float"/>
              <param name="Y" type="float"/>
              <param name="Z" type="float"/>
            </accessor>
          </technique_common>
        </source>
        <source id="visible_2x_stud_left_112_mesh-mesh-map-0">
          <float_array id="visible_2x_stud_left_112_mesh-mesh-map-0-array" count="72">0.625 0 0.375 0.25 0.375 0 0.625 0.25 0.375 0.5 0.375 0.25 0.625 0.5 0.375 0.75 0.375 0.5 0.625 0.75 0.375 1 0.375 0.75 0.375 0.5 0.125 0.75 0.125 0.5 0.875 0.5 0.625 0.75 0.625 0.5 0.625 0 0.625 0.25 0.375 0.25 0.625 0.25 0.625 0.5 0.375 0.5 0.625 0.5 0.625 0.75 0.375 0.75 0.625 0.75 0.625 1 0.375 1 0.375 0.5 0.375 0.75 0.125 0.75 0.875 0.5 0.875 0.75 0.625 0.75</float_array>
          <technique_common>
            <accessor source="#visible_2x_stud_left_112_mesh-mesh-map-0-array" count="36" stride="2">
              <param name="S" type="float"/>
              <param name="T" type="float"/>
            </accessor>
          </technique_common>
        </source>
        <vertices id="visible_2x_stud_left_112_mesh-mesh-vertices">
          <input semantic="POSITION" source="#visible_2x_stud_left_112_mesh-mesh-positions"/>
        </vertices>
        <triangles material="standard_2x_framing_lumber-material" count="12">
          <input semantic="VERTEX" source="#visible_2x_stud_left_112_mesh-mesh-vertices" offset="0"/>
          <input semantic="NORMAL" source="#visible_2x_stud_left_112_mesh-mesh-normals" offset="1"/>
          <input semantic="TEXCOORD" source="#visible_2x_stud_left_112_mesh-mesh-map-0" offset="2" set="0"/>
          <p>1 0 0 2 0 1 0 0 2 3 1 3 6 1 4 2 1 5 7 2 6 4 2 7 6 2 8 5 3 9 0 3 10 4 3 11 6 4 12 0 4 13 2 4 14 3 5 15 5 5 16 7 5 17 1 0 18 3 0 19 2 0 20 3 1 21 7 1 22 6 1 23 7 2 24 5 2 25 4 2 26 5 3 27 1 3 28 0 3 29 6 4 30 4 4 31 0 4 32 3 5 33 1 5 34 5 5 35</p>
        </triangles>
      </mesh>
    </geometry>
    <geometry id="visible_2x_stud_cutaway_96_mesh-mesh" name="visible 2x stud cutaway 96 mesh">
      <mesh>
        <source id="visible_2x_stud_cutaway_96_mesh-mesh-positions">
          <float_array id="visible_2x_stud_cutaway_96_mesh-mesh-positions-array" count="24">-0.5 -0.5 -0.5 -0.5 -0.5 0.5 -0.5 0.5 -0.5 -0.5 0.5 0.5 0.5 -0.5 -0.5 0.5 -0.5 0.5 0.5 0.5 -0.5 0.5 0.5 0.5</float_array>
          <technique_common>
            <accessor source="#visible_2x_stud_cutaway_96_mesh-mesh-positions-array" count="8" stride="3">
              <param name="X" type="float"/>
              <param name="Y" type="float"/>
              <param name="Z" type="float"/>
            </accessor>
          </technique_common>
        </source>
        <source id="visible_2x_stud_cutaway_96_mesh-mesh-normals">
          <float_array id="visible_2x_stud_cutaway_96_mesh-mesh-normals-array" count="18">-1 0 0 0 1 0 1 0 0 0 -1 0 0 0 -1 0 0 1</float_array>
          <technique_common>
            <accessor source="#visible_2x_stud_cutaway_96_mesh-mesh-normals-array" count="6" stride="3">
              <param name="X" type="float"/>
              <param name="Y" type="float"/>
              <param name="Z" type="float"/>
            </accessor>
          </technique_common>
        </source>
        <source id="visible_2x_stud_cutaway_96_mesh-mesh-map-0">
          <float_array id="visible_2x_stud_cutaway_96_mesh-mesh-map-0-array" count="72">0.625 0 0.375 0.25 0.375 0 0.625 0.25 0.375 0.5 0.375 0.25 0.625 0.5 0.375 0.75 0.375 0.5 0.625 0.75 0.375 1 0.375 0.75 0.375 0.5 0.125 0.75 0.125 0.5 0.875 0.5 0.625 0.75 0.625 0.5 0.625 0 0.625 0.25 0.375 0.25 0.625 0.25 0.625 0.5 0.375 0.5 0.625 0.5 0.625 0.75 0.375 0.75 0.625 0.75 0.625 1 0.375 1 0.375 0.5 0.375 0.75 0.125 0.75 0.875 0.5 0.875 0.75 0.625 0.75</float_array>
          <technique_common>
            <accessor source="#visible_2x_stud_cutaway_96_mesh-mesh-map-0-array" count="36" stride="2">
              <param name="S" type="float"/>
              <param name="T" type="float"/>
            </accessor>
          </technique_common>
        </source>
        <vertices id="visible_2x_stud_cutaway_96_mesh-mesh-vertices">
          <input semantic="POSITION" source="#visible_2x_stud_cutaway_96_mesh-mesh-positions"/>
        </vertices>
        <triangles material="standard_2x_framing_lumber-material" count="12">
          <input semantic="VERTEX" source="#visible_2x_stud_cutaway_96_mesh-mesh-vertices" offset="0"/>
          <input semantic="NORMAL" source="#visible_2x_stud_cutaway_96_mesh-mesh-normals" offset="1"/>
          <input semantic="TEXCOORD" source="#visible_2x_stud_cutaway_96_mesh-mesh-map-0" offset="2" set="0"/>
          <p>1 0 0 2 0 1 0 0 2 3 1 3 6 1 4 2 1 5 7 2 6 4 2 7 6 2 8 5 3 9 0 3 10 4 3 11 6 4 12 0 4 13 2 4 14 3 5 15 5 5 16 7 5 17 1 0 18 3 0 19 2 0 20 3 1 21 7 1 22 6 1 23 7 2 24 5 2 25 4 2 26 5 3 27 1 3 28 0 3 29 6 4 30 4 4 31 0 4 32 3 5 33 1 5 34 5 5 35</p>
        </triangles>
      </mesh>
    </geometry>
    <geometry id="visible_2x_stud_left_96_mesh-mesh" name="visible 2x stud left 96 mesh">
      <mesh>
        <source id="visible_2x_stud_left_96_mesh-mesh-positions">
          <float_array id="visible_2x_stud_left_96_mesh-mesh-positions-array" count="24">-0.5 -0.5 -0.5 -0.5 -0.5 0.5 -0.5 0.5 -0.5 -0.5 0.5 0.5 0.5 -0.5 -0.5 0.5 -0.5 0.5 0.5 0.5 -0.5 0.5 0.5 0.5</float_array>
          <technique_common>
            <accessor source="#visible_2x_stud_left_96_mesh-mesh-positions-array" count="8" stride="3">
              <param name="X" type="float"/>
              <param name="Y" type="float"/>
              <param name="Z" type="float"/>
            </accessor>
          </technique_common>
        </source>
        <source id="visible_2x_stud_left_96_mesh-mesh-normals">
          <float_array id="visible_2x_stud_left_96_mesh-mesh-normals-array" count="18">-1 0 0 0 1 0 1 0 0 0 -1 0 0 0 -1 0 0 1</float_array>
          <technique_common>
            <accessor source="#visible_2x_stud_left_96_mesh-mesh-normals-array" count="6" stride="3">
              <param name="X" type="float"/>
              <param name="Y" type="float"/>
              <param name="Z" type="float"/>
            </accessor>
          </technique_common>
        </source>
        <source id="visible_2x_stud_left_96_mesh-mesh-map-0">
          <float_array id="visible_2x_stud_left_96_mesh-mesh-map-0-array" count="72">0.625 0 0.375 0.25 0.375 0 0.625 0.25 0.375 0.5 0.375 0.25 0.625 0.5 0.375 0.75 0.375 0.5 0.625 0.75 0.375 1 0.375 0.75 0.375 0.5 0.125 0.75 0.125 0.5 0.875 0.5 0.625 0.75 0.625 0.5 0.625 0 0.625 0.25 0.375 0.25 0.625 0.25 0.625 0.5 0.375 0.5 0.625 0.5 0.625 0.75 0.375 0.75 0.625 0.75 0.625 1 0.375 1 0.375 0.5 0.375 0.75 0.125 0.75 0.875 0.5 0.875 0.75 0.625 0.75</float_array>
          <technique_common>
            <accessor source="#visible_2x_stud_left_96_mesh-mesh-map-0-array" count="36" stride="2">
              <param name="S" type="float"/>
              <param name="T" type="float"/>
            </accessor>
          </technique_common>
        </source>
        <vertices id="visible_2x_stud_left_96_mesh-mesh-vertices">
          <input semantic="POSITION" source="#visible_2x_stud_left_96_mesh-mesh-positions"/>
        </vertices>
        <triangles material="standard_2x_framing_lumber-material" count="12">
          <input semantic="VERTEX" source="#visible_2x_stud_left_96_mesh-mesh-vertices" offset="0"/>
          <input semantic="NORMAL" source="#visible_2x_stud_left_96_mesh-mesh-normals" offset="1"/>
          <input semantic="TEXCOORD" source="#visible_2x_stud_left_96_mesh-mesh-map-0" offset="2" set="0"/>
          <p>1 0 0 2 0 1 0 0 2 3 1 3 6 1 4 2 1 5 7 2 6 4 2 7 6 2 8 5 3 9 0 3 10 4 3 11 6 4 12 0 4 13 2 4 14 3 5 15 5 5 16 7 5 17 1 0 18 3 0 19 2 0 20 3 1 21 7 1 22 6 1 23 7 2 24 5 2 25 4 2 26 5 3 27 1 3 28 0 3 29 6 4 30 4 4 31 0 4 32 3 5 33 1 5 34 5 5 35</p>
        </triangles>
      </mesh>
    </geometry>
    <geometry id="visible_2x_stud_cutaway_80_mesh-mesh" name="visible 2x stud cutaway 80 mesh">
      <mesh>
        <source id="visible_2x_stud_cutaway_80_mesh-mesh-positions">
          <float_array id="visible_2x_stud_cutaway_80_mesh-mesh-positions-array" count="24">-0.5 -0.5 -0.5 -0.5 -0.5 0.5 -0.5 0.5 -0.5 -0.5 0.5 0.5 0.5 -0.5 -0.5 0.5 -0.5 0.5 0.5 0.5 -0.5 0.5 0.5 0.5</float_array>
          <technique_common>
            <accessor source="#visible_2x_stud_cutaway_80_mesh-mesh-positions-array" count="8" stride="3">
              <param name="X" type="float"/>
              <param name="Y" type="float"/>
              <param name="Z" type="float"/>
            </accessor>
          </technique_common>
        </source>
        <source id="visible_2x_stud_cutaway_80_mesh-mesh-normals">
          <float_array id="visible_2x_stud_cutaway_80_mesh-mesh-normals-array" count="18">-1 0 0 0 1 0 1 0 0 0 -1 0 0 0 -1 0 0 1</float_array>
          <technique_common>
            <accessor source="#visible_2x_stud_cutaway_80_mesh-mesh-normals-array" count="6" stride="3">
              <param name="X" type="float"/>
              <param name="Y" type="float"/>
              <param name="Z" type="float"/>
            </accessor>
          </technique_common>
        </source>
        <source id="visible_2x_stud_cutaway_80_mesh-mesh-map-0">
          <float_array id="visible_2x_stud_cutaway_80_mesh-mesh-map-0-array" count="72">0.625 0 0.375 0.25 0.375 0 0.625 0.25 0.375 0.5 0.375 0.25 0.625 0.5 0.375 0.75 0.375 0.5 0.625 0.75 0.375 1 0.375 0.75 0.375 0.5 0.125 0.75 0.125 0.5 0.875 0.5 0.625 0.75 0.625 0.5 0.625 0 0.625 0.25 0.375 0.25 0.625 0.25 0.625 0.5 0.375 0.5 0.625 0.5 0.625 0.75 0.375 0.75 0.625 0.75 0.625 1 0.375 1 0.375 0.5 0.375 0.75 0.125 0.75 0.875 0.5 0.875 0.75 0.625 0.75</float_array>
          <technique_common>
            <accessor source="#visible_2x_stud_cutaway_80_mesh-mesh-map-0-array" count="36" stride="2">
              <param name="S" type="float"/>
              <param name="T" type="float"/>
            </accessor>
          </technique_common>
        </source>
        <vertices id="visible_2x_stud_cutaway_80_mesh-mesh-vertices">
          <input semantic="POSITION" source="#visible_2x_stud_cutaway_80_mesh-mesh-positions"/>
        </vertices>
        <triangles material="standard_2x_framing_lumber-material" count="12">
          <input semantic="VERTEX" source="#visible_2x_stud_cutaway_80_mesh-mesh-vertices" offset="0"/>
          <input semantic="NORMAL" source="#visible_2x_stud_cutaway_80_mesh-mesh-normals" offset="1"/>
          <input semantic="TEXCOORD" source="#visible_2x_stud_cutaway_80_mesh-mesh-map-0" offset="2" set="0"/>
          <p>1 0 0 2 0 1 0 0 2 3 1 3 6 1 4 2 1 5 7 2 6 4 2 7 6 2 8 5 3 9 0 3 10 4 3 11 6 4 12 0 4 13 2 4 14 3 5 15 5 5 16 7 5 17 1 0 18 3 0 19 2 0 20 3 1 21 7 1 22 6 1 23 7 2 24 5 2 25 4 2 26 5 3 27 1 3 28 0 3 29 6 4 30 4 4 31 0 4 32 3 5 33 1 5 34 5 5 35</p>
        </triangles>
      </mesh>
    </geometry>
    <geometry id="visible_2x_stud_left_80_mesh-mesh" name="visible 2x stud left 80 mesh">
      <mesh>
        <source id="visible_2x_stud_left_80_mesh-mesh-positions">
          <float_array id="visible_2x_stud_left_80_mesh-mesh-positions-array" count="24">-0.5 -0.5 -0.5 -0.5 -0.5 0.5 -0.5 0.5 -0.5 -0.5 0.5 0.5 0.5 -0.5 -0.5 0.5 -0.5 0.5 0.5 0.5 -0.5 0.5 0.5 0.5</float_array>
          <technique_common>
            <accessor source="#visible_2x_stud_left_80_mesh-mesh-positions-array" count="8" stride="3">
              <param name="X" type="float"/>
              <param name="Y" type="float"/>
              <param name="Z" type="float"/>
            </accessor>
          </technique_common>
        </source>
        <source id="visible_2x_stud_left_80_mesh-mesh-normals">
          <float_array id="visible_2x_stud_left_80_mesh-mesh-normals-array" count="18">-1 0 0 0 1 0 1 0 0 0 -1 0 0 0 -1 0 0 1</float_array>
          <technique_common>
            <accessor source="#visible_2x_stud_left_80_mesh-mesh-normals-array" count="6" stride="3">
              <param name="X" type="float"/>
              <param name="Y" type="float"/>
              <param name="Z" type="float"/>
            </accessor>
          </technique_common>
        </source>
        <source id="visible_2x_stud_left_80_mesh-mesh-map-0">
          <float_array id="visible_2x_stud_left_80_mesh-mesh-map-0-array" count="72">0.625 0 0.375 0.25 0.375 0 0.625 0.25 0.375 0.5 0.375 0.25 0.625 0.5 0.375 0.75 0.375 0.5 0.625 0.75 0.375 1 0.375 0.75 0.375 0.5 0.125 0.75 0.125 0.5 0.875 0.5 0.625 0.75 0.625 0.5 0.625 0 0.625 0.25 0.375 0.25 0.625 0.25 0.625 0.5 0.375 0.5 0.625 0.5 0.625 0.75 0.375 0.75 0.625 0.75 0.625 1 0.375 1 0.375 0.5 0.375 0.75 0.125 0.75 0.875 0.5 0.875 0.75 0.625 0.75</float_array>
          <technique_common>
            <accessor source="#visible_2x_stud_left_80_mesh-mesh-map-0-array" count="36" stride="2">
              <param name="S" type="float"/>
              <param name="T" type="float"/>
            </accessor>
          </technique_common>
        </source>
        <vertices id="visible_2x_stud_left_80_mesh-mesh-vertices">
          <input semantic="POSITION" source="#visible_2x_stud_left_80_mesh-mesh-positions"/>
        </vertices>
        <triangles material="standard_2x_framing_lumber-material" count="12">
          <input semantic="VERTEX" source="#visible_2x_stud_left_80_mesh-mesh-vertices" offset="0"/>
          <input semantic="NORMAL" source="#visible_2x_stud_left_80_mesh-mesh-normals" offset="1"/>
          <input semantic="TEXCOORD" source="#visible_2x_stud_left_80_mesh-mesh-map-0" offset="2" set="0"/>
          <p>1 0 0 2 0 1 0 0 2 3 1 3 6 1 4 2 1 5 7 2 6 4 2 7 6 2 8 5 3 9 0 3 10 4 3 11 6 4 12 0 4 13 2 4 14 3 5 15 5 5 16 7 5 17 1 0 18 3 0 19 2 0 20 3 1 21 7 1 22 6 1 23 7 2 24 5 2 25 4 2 26 5 3 27 1 3 28 0 3 29 6 4 30 4 4 31 0 4 32 3 5 33 1 5 34 5 5 35</p>
        </triangles>
      </mesh>
    </geometry>
    <geometry id="visible_2x_stud_cutaway_64_mesh-mesh" name="visible 2x stud cutaway 64 mesh">
      <mesh>
        <source id="visible_2x_stud_cutaway_64_mesh-mesh-positions">
          <float_array id="visible_2x_stud_cutaway_64_mesh-mesh-positions-array" count="24">-0.5 -0.5 -0.5 -0.5 -0.5 0.5 -0.5 0.5 -0.5 -0.5 0.5 0.5 0.5 -0.5 -0.5 0.5 -0.5 0.5 0.5 0.5 -0.5 0.5 0.5 0.5</float_array>
          <technique_common>
            <accessor source="#visible_2x_stud_cutaway_64_mesh-mesh-positions-array" count="8" stride="3">
              <param name="X" type="float"/>
              <param name="Y" type="float"/>
              <param name="Z" type="float"/>
            </accessor>
          </technique_common>
        </source>
        <source id="visible_2x_stud_cutaway_64_mesh-mesh-normals">
          <float_array id="visible_2x_stud_cutaway_64_mesh-mesh-normals-array" count="18">-1 0 0 0 1 0 1 0 0 0 -1 0 0 0 -1 0 0 1</float_array>
          <technique_common>
            <accessor source="#visible_2x_stud_cutaway_64_mesh-mesh-normals-array" count="6" stride="3">
              <param name="X" type="float"/>
              <param name="Y" type="float"/>
              <param name="Z" type="float"/>
            </accessor>
          </technique_common>
        </source>
        <source id="visible_2x_stud_cutaway_64_mesh-mesh-map-0">
          <float_array id="visible_2x_stud_cutaway_64_mesh-mesh-map-0-array" count="72">0.625 0 0.375 0.25 0.375 0 0.625 0.25 0.375 0.5 0.375 0.25 0.625 0.5 0.375 0.75 0.375 0.5 0.625 0.75 0.375 1 0.375 0.75 0.375 0.5 0.125 0.75 0.125 0.5 0.875 0.5 0.625 0.75 0.625 0.5 0.625 0 0.625 0.25 0.375 0.25 0.625 0.25 0.625 0.5 0.375 0.5 0.625 0.5 0.625 0.75 0.375 0.75 0.625 0.75 0.625 1 0.375 1 0.375 0.5 0.375 0.75 0.125 0.75 0.875 0.5 0.875 0.75 0.625 0.75</float_array>
          <technique_common>
            <accessor source="#visible_2x_stud_cutaway_64_mesh-mesh-map-0-array" count="36" stride="2">
              <param name="S" type="float"/>
              <param name="T" type="float"/>
            </accessor>
          </technique_common>
        </source>
        <vertices id="visible_2x_stud_cutaway_64_mesh-mesh-vertices">
          <input semantic="POSITION" source="#visible_2x_stud_cutaway_64_mesh-mesh-positions"/>
        </vertices>
        <triangles material="standard_2x_framing_lumber-material" count="12">
          <input semantic="VERTEX" source="#visible_2x_stud_cutaway_64_mesh-mesh-vertices" offset="0"/>
          <input semantic="NORMAL" source="#visible_2x_stud_cutaway_64_mesh-mesh-normals" offset="1"/>
          <input semantic="TEXCOORD" source="#visible_2x_stud_cutaway_64_mesh-mesh-map-0" offset="2" set="0"/>
          <p>1 0 0 2 0 1 0 0 2 3 1 3 6 1 4 2 1 5 7 2 6 4 2 7 6 2 8 5 3 9 0 3 10 4 3 11 6 4 12 0 4 13 2 4 14 3 5 15 5 5 16 7 5 17 1 0 18 3 0 19 2 0 20 3 1 21 7 1 22 6 1 23 7 2 24 5 2 25 4 2 26 5 3 27 1 3 28 0 3 29 6 4 30 4 4 31 0 4 32 3 5 33 1 5 34 5 5 35</p>
        </triangles>
      </mesh>
    </geometry>
    <geometry id="visible_2x_stud_left_64_mesh-mesh" name="visible 2x stud left 64 mesh">
      <mesh>
        <source id="visible_2x_stud_left_64_mesh-mesh-positions">
          <float_array id="visible_2x_stud_left_64_mesh-mesh-positions-array" count="24">-0.5 -0.5 -0.5 -0.5 -0.5 0.5 -0.5 0.5 -0.5 -0.5 0.5 0.5 0.5 -0.5 -0.5 0.5 -0.5 0.5 0.5 0.5 -0.5 0.5 0.5 0.5</float_array>
          <technique_common>
            <accessor source="#visible_2x_stud_left_64_mesh-mesh-positions-array" count="8" stride="3">
              <param name="X" type="float"/>
              <param name="Y" type="float"/>
              <param name="Z" type="float"/>
            </accessor>
          </technique_common>
        </source>
        <source id="visible_2x_stud_left_64_mesh-mesh-normals">
          <float_array id="visible_2x_stud_left_64_mesh-mesh-normals-array" count="18">-1 0 0 0 1 0 1 0 0 0 -1 0 0 0 -1 0 0 1</float_array>
          <technique_common>
            <accessor source="#visible_2x_stud_left_64_mesh-mesh-normals-array" count="6" stride="3">
              <param name="X" type="float"/>
              <param name="Y" type="float"/>
              <param name="Z" type="float"/>
            </accessor>
          </technique_common>
        </source>
        <source id="visible_2x_stud_left_64_mesh-mesh-map-0">
          <float_array id="visible_2x_stud_left_64_mesh-mesh-map-0-array" count="72">0.625 0 0.375 0.25 0.375 0 0.625 0.25 0.375 0.5 0.375 0.25 0.625 0.5 0.375 0.75 0.375 0.5 0.625 0.75 0.375 1 0.375 0.75 0.375 0.5 0.125 0.75 0.125 0.5 0.875 0.5 0.625 0.75 0.625 0.5 0.625 0 0.625 0.25 0.375 0.25 0.625 0.25 0.625 0.5 0.375 0.5 0.625 0.5 0.625 0.75 0.375 0.75 0.625 0.75 0.625 1 0.375 1 0.375 0.5 0.375 0.75 0.125 0.75 0.875 0.5 0.875 0.75 0.625 0.75</float_array>
          <technique_common>
            <accessor source="#visible_2x_stud_left_64_mesh-mesh-map-0-array" count="36" stride="2">
              <param name="S" type="float"/>
              <param name="T" type="float"/>
            </accessor>
          </technique_common>
        </source>
        <vertices id="visible_2x_stud_left_64_mesh-mesh-vertices">
          <input semantic="POSITION" source="#visible_2x_stud_left_64_mesh-mesh-positions"/>
        </vertices>
        <triangles material="standard_2x_framing_lumber-material" count="12">
          <input semantic="VERTEX" source="#visible_2x_stud_left_64_mesh-mesh-vertices" offset="0"/>
          <input semantic="NORMAL" source="#visible_2x_stud_left_64_mesh-mesh-normals" offset="1"/>
          <input semantic="TEXCOORD" source="#visible_2x_stud_left_64_mesh-mesh-map-0" offset="2" set="0"/>
          <p>1 0 0 2 0 1 0 0 2 3 1 3 6 1 4 2 1 5 7 2 6 4 2 7 6 2 8 5 3 9 0 3 10 4 3 11 6 4 12 0 4 13 2 4 14 3 5 15 5 5 16 7 5 17 1 0 18 3 0 19 2 0 20 3 1 21 7 1 22 6 1 23 7 2 24 5 2 25 4 2 26 5 3 27 1 3 28 0 3 29 6 4 30 4 4 31 0 4 32 3 5 33 1 5 34 5 5 35</p>
        </triangles>
      </mesh>
    </geometry>
    <geometry id="visible_2x_stud_cutaway_48_mesh-mesh" name="visible 2x stud cutaway 48 mesh">
      <mesh>
        <source id="visible_2x_stud_cutaway_48_mesh-mesh-positions">
          <float_array id="visible_2x_stud_cutaway_48_mesh-mesh-positions-array" count="24">-0.5 -0.5 -0.5 -0.5 -0.5 0.5 -0.5 0.5 -0.5 -0.5 0.5 0.5 0.5 -0.5 -0.5 0.5 -0.5 0.5 0.5 0.5 -0.5 0.5 0.5 0.5</float_array>
          <technique_common>
            <accessor source="#visible_2x_stud_cutaway_48_mesh-mesh-positions-array" count="8" stride="3">
              <param name="X" type="float"/>
              <param name="Y" type="float"/>
              <param name="Z" type="float"/>
            </accessor>
          </technique_common>
        </source>
        <source id="visible_2x_stud_cutaway_48_mesh-mesh-normals">
          <float_array id="visible_2x_stud_cutaway_48_mesh-mesh-normals-array" count="18">-1 0 0 0 1 0 1 0 0 0 -1 0 0 0 -1 0 0 1</float_array>
          <technique_common>
            <accessor source="#visible_2x_stud_cutaway_48_mesh-mesh-normals-array" count="6" stride="3">
              <param name="X" type="float"/>
              <param name="Y" type="float"/>
              <param name="Z" type="float"/>
            </accessor>
          </technique_common>
        </source>
        <source id="visible_2x_stud_cutaway_48_mesh-mesh-map-0">
          <float_array id="visible_2x_stud_cutaway_48_mesh-mesh-map-0-array" count="72">0.625 0 0.375 0.25 0.375 0 0.625 0.25 0.375 0.5 0.375 0.25 0.625 0.5 0.375 0.75 0.375 0.5 0.625 0.75 0.375 1 0.375 0.75 0.375 0.5 0.125 0.75 0.125 0.5 0.875 0.5 0.625 0.75 0.625 0.5 0.625 0 0.625 0.25 0.375 0.25 0.625 0.25 0.625 0.5 0.375 0.5 0.625 0.5 0.625 0.75 0.375 0.75 0.625 0.75 0.625 1 0.375 1 0.375 0.5 0.375 0.75 0.125 0.75 0.875 0.5 0.875 0.75 0.625 0.75</float_array>
          <technique_common>
            <accessor source="#visible_2x_stud_cutaway_48_mesh-mesh-map-0-array" count="36" stride="2">
              <param name="S" type="float"/>
              <param name="T" type="float"/>
            </accessor>
          </technique_common>
        </source>
        <vertices id="visible_2x_stud_cutaway_48_mesh-mesh-vertices">
          <input semantic="POSITION" source="#visible_2x_stud_cutaway_48_mesh-mesh-positions"/>
        </vertices>
        <triangles material="standard_2x_framing_lumber-material" count="12">
          <input semantic="VERTEX" source="#visible_2x_stud_cutaway_48_mesh-mesh-vertices" offset="0"/>
          <input semantic="NORMAL" source="#visible_2x_stud_cutaway_48_mesh-mesh-normals" offset="1"/>
          <input semantic="TEXCOORD" source="#visible_2x_stud_cutaway_48_mesh-mesh-map-0" offset="2" set="0"/>
          <p>1 0 0 2 0 1 0 0 2 3 1 3 6 1 4 2 1 5 7 2 6 4 2 7 6 2 8 5 3 9 0 3 10 4 3 11 6 4 12 0 4 13 2 4 14 3 5 15 5 5 16 7 5 17 1 0 18 3 0 19 2 0 20 3 1 21 7 1 22 6 1 23 7 2 24 5 2 25 4 2 26 5 3 27 1 3 28 0 3 29 6 4 30 4 4 31 0 4 32 3 5 33 1 5 34 5 5 35</p>
        </triangles>
      </mesh>
    </geometry>
    <geometry id="visible_2x_stud_left_48_mesh-mesh" name="visible 2x stud left 48 mesh">
      <mesh>
        <source id="visible_2x_stud_left_48_mesh-mesh-positions">
          <float_array id="visible_2x_stud_left_48_mesh-mesh-positions-array" count="24">-0.5 -0.5 -0.5 -0.5 -0.5 0.5 -0.5 0.5 -0.5 -0.5 0.5 0.5 0.5 -0.5 -0.5 0.5 -0.5 0.5 0.5 0.5 -0.5 0.5 0.5 0.5</float_array>
          <technique_common>
            <accessor source="#visible_2x_stud_left_48_mesh-mesh-positions-array" count="8" stride="3">
              <param name="X" type="float"/>
              <param name="Y" type="float"/>
              <param name="Z" type="float"/>
            </accessor>
          </technique_common>
        </source>
        <source id="visible_2x_stud_left_48_mesh-mesh-normals">
          <float_array id="visible_2x_stud_left_48_mesh-mesh-normals-array" count="18">-1 0 0 0 1 0 1 0 0 0 -1 0 0 0 -1 0 0 1</float_array>
          <technique_common>
            <accessor source="#visible_2x_stud_left_48_mesh-mesh-normals-array" count="6" stride="3">
              <param name="X" type="float"/>
              <param name="Y" type="float"/>
              <param name="Z" type="float"/>
            </accessor>
          </technique_common>
        </source>
        <source id="visible_2x_stud_left_48_mesh-mesh-map-0">
          <float_array id="visible_2x_stud_left_48_mesh-mesh-map-0-array" count="72">0.625 0 0.375 0.25 0.375 0 0.625 0.25 0.375 0.5 0.375 0.25 0.625 0.5 0.375 0.75 0.375 0.5 0.625 0.75 0.375 1 0.375 0.75 0.375 0.5 0.125 0.75 0.125 0.5 0.875 0.5 0.625 0.75 0.625 0.5 0.625 0 0.625 0.25 0.375 0.25 0.625 0.25 0.625 0.5 0.375 0.5 0.625 0.5 0.625 0.75 0.375 0.75 0.625 0.75 0.625 1 0.375 1 0.375 0.5 0.375 0.75 0.125 0.75 0.875 0.5 0.875 0.75 0.625 0.75</float_array>
          <technique_common>
            <accessor source="#visible_2x_stud_left_48_mesh-mesh-map-0-array" count="36" stride="2">
              <param name="S" type="float"/>
              <param name="T" type="float"/>
            </accessor>
          </technique_common>
        </source>
        <vertices id="visible_2x_stud_left_48_mesh-mesh-vertices">
          <input semantic="POSITION" source="#visible_2x_stud_left_48_mesh-mesh-positions"/>
        </vertices>
        <triangles material="standard_2x_framing_lumber-material" count="12">
          <input semantic="VERTEX" source="#visible_2x_stud_left_48_mesh-mesh-vertices" offset="0"/>
          <input semantic="NORMAL" source="#visible_2x_stud_left_48_mesh-mesh-normals" offset="1"/>
          <input semantic="TEXCOORD" source="#visible_2x_stud_left_48_mesh-mesh-map-0" offset="2" set="0"/>
          <p>1 0 0 2 0 1 0 0 2 3 1 3 6 1 4 2 1 5 7 2 6 4 2 7 6 2 8 5 3 9 0 3 10 4 3 11 6 4 12 0 4 13 2 4 14 3 5 15 5 5 16 7 5 17 1 0 18 3 0 19 2 0 20 3 1 21 7 1 22 6 1 23 7 2 24 5 2 25 4 2 26 5 3 27 1 3 28 0 3 29 6 4 30 4 4 31 0 4 32 3 5 33 1 5 34 5 5 35</p>
        </triangles>
      </mesh>
    </geometry>
    <geometry id="visible_2x_stud_cutaway_32_mesh-mesh" name="visible 2x stud cutaway 32 mesh">
      <mesh>
        <source id="visible_2x_stud_cutaway_32_mesh-mesh-positions">
          <float_array id="visible_2x_stud_cutaway_32_mesh-mesh-positions-array" count="24">-0.5 -0.5 -0.5 -0.5 -0.5 0.5 -0.5 0.5 -0.5 -0.5 0.5 0.5 0.5 -0.5 -0.5 0.5 -0.5 0.5 0.5 0.5 -0.5 0.5 0.5 0.5</float_array>
          <technique_common>
            <accessor source="#visible_2x_stud_cutaway_32_mesh-mesh-positions-array" count="8" stride="3">
              <param name="X" type="float"/>
              <param name="Y" type="float"/>
              <param name="Z" type="float"/>
            </accessor>
          </technique_common>
        </source>
        <source id="visible_2x_stud_cutaway_32_mesh-mesh-normals">
          <float_array id="visible_2x_stud_cutaway_32_mesh-mesh-normals-array" count="18">-1 0 0 0 1 0 1 0 0 0 -1 0 0 0 -1 0 0 1</float_array>
          <technique_common>
            <accessor source="#visible_2x_stud_cutaway_32_mesh-mesh-normals-array" count="6" stride="3">
              <param name="X" type="float"/>
              <param name="Y" type="float"/>
              <param name="Z" type="float"/>
            </accessor>
          </technique_common>
        </source>
        <source id="visible_2x_stud_cutaway_32_mesh-mesh-map-0">
          <float_array id="visible_2x_stud_cutaway_32_mesh-mesh-map-0-array" count="72">0.625 0 0.375 0.25 0.375 0 0.625 0.25 0.375 0.5 0.375 0.25 0.625 0.5 0.375 0.75 0.375 0.5 0.625 0.75 0.375 1 0.375 0.75 0.375 0.5 0.125 0.75 0.125 0.5 0.875 0.5 0.625 0.75 0.625 0.5 0.625 0 0.625 0.25 0.375 0.25 0.625 0.25 0.625 0.5 0.375 0.5 0.625 0.5 0.625 0.75 0.375 0.75 0.625 0.75 0.625 1 0.375 1 0.375 0.5 0.375 0.75 0.125 0.75 0.875 0.5 0.875 0.75 0.625 0.75</float_array>
          <technique_common>
            <accessor source="#visible_2x_stud_cutaway_32_mesh-mesh-map-0-array" count="36" stride="2">
              <param name="S" type="float"/>
              <param name="T" type="float"/>
            </accessor>
          </technique_common>
        </source>
        <vertices id="visible_2x_stud_cutaway_32_mesh-mesh-vertices">
          <input semantic="POSITION" source="#visible_2x_stud_cutaway_32_mesh-mesh-positions"/>
        </vertices>
        <triangles material="standard_2x_framing_lumber-material" count="12">
          <input semantic="VERTEX" source="#visible_2x_stud_cutaway_32_mesh-mesh-vertices" offset="0"/>
          <input semantic="NORMAL" source="#visible_2x_stud_cutaway_32_mesh-mesh-normals" offset="1"/>
          <input semantic="TEXCOORD" source="#visible_2x_stud_cutaway_32_mesh-mesh-map-0" offset="2" set="0"/>
          <p>1 0 0 2 0 1 0 0 2 3 1 3 6 1 4 2 1 5 7 2 6 4 2 7 6 2 8 5 3 9 0 3 10 4 3 11 6 4 12 0 4 13 2 4 14 3 5 15 5 5 16 7 5 17 1 0 18 3 0 19 2 0 20 3 1 21 7 1 22 6 1 23 7 2 24 5 2 25 4 2 26 5 3 27 1 3 28 0 3 29 6 4 30 4 4 31 0 4 32 3 5 33 1 5 34 5 5 35</p>
        </triangles>
      </mesh>
    </geometry>
    <geometry id="visible_2x_stud_left_32_mesh-mesh" name="visible 2x stud left 32 mesh">
      <mesh>
        <source id="visible_2x_stud_left_32_mesh-mesh-positions">
          <float_array id="visible_2x_stud_left_32_mesh-mesh-positions-array" count="24">-0.5 -0.5 -0.5 -0.5 -0.5 0.5 -0.5 0.5 -0.5 -0.5 0.5 0.5 0.5 -0.5 -0.5 0.5 -0.5 0.5 0.5 0.5 -0.5 0.5 0.5 0.5</float_array>
          <technique_common>
            <accessor source="#visible_2x_stud_left_32_mesh-mesh-positions-array" count="8" stride="3">
              <param name="X" type="float"/>
              <param name="Y" type="float"/>
              <param name="Z" type="float"/>
            </accessor>
          </technique_common>
        </source>
        <source id="visible_2x_stud_left_32_mesh-mesh-normals">
          <float_array id="visible_2x_stud_left_32_mesh-mesh-normals-array" count="18">-1 0 0 0 1 0 1 0 0 0 -1 0 0 0 -1 0 0 1</float_array>
          <technique_common>
            <accessor source="#visible_2x_stud_left_32_mesh-mesh-normals-array" count="6" stride="3">
              <param name="X" type="float"/>
              <param name="Y" type="float"/>
              <param name="Z" type="float"/>
            </accessor>
          </technique_common>
        </source>
        <source id="visible_2x_stud_left_32_mesh-mesh-map-0">
          <float_array id="visible_2x_stud_left_32_mesh-mesh-map-0-array" count="72">0.625 0 0.375 0.25 0.375 0 0.625 0.25 0.375 0.5 0.375 0.25 0.625 0.5 0.375 0.75 0.375 0.5 0.625 0.75 0.375 1 0.375 0.75 0.375 0.5 0.125 0.75 0.125 0.5 0.875 0.5 0.625 0.75 0.625 0.5 0.625 0 0.625 0.25 0.375 0.25 0.625 0.25 0.625 0.5 0.375 0.5 0.625 0.5 0.625 0.75 0.375 0.75 0.625 0.75 0.625 1 0.375 1 0.375 0.5 0.375 0.75 0.125 0.75 0.875 0.5 0.875 0.75 0.625 0.75</float_array>
          <technique_common>
            <accessor source="#visible_2x_stud_left_32_mesh-mesh-map-0-array" count="36" stride="2">
              <param name="S" type="float"/>
              <param name="T" type="float"/>
            </accessor>
          </technique_common>
        </source>
        <vertices id="visible_2x_stud_left_32_mesh-mesh-vertices">
          <input semantic="POSITION" source="#visible_2x_stud_left_32_mesh-mesh-positions"/>
        </vertices>
        <triangles material="standard_2x_framing_lumber-material" count="12">
          <input semantic="VERTEX" source="#visible_2x_stud_left_32_mesh-mesh-vertices" offset="0"/>
          <input semantic="NORMAL" source="#visible_2x_stud_left_32_mesh-mesh-normals" offset="1"/>
          <input semantic="TEXCOORD" source="#visible_2x_stud_left_32_mesh-mesh-map-0" offset="2" set="0"/>
          <p>1 0 0 2 0 1 0 0 2 3 1 3 6 1 4 2 1 5 7 2 6 4 2 7 6 2 8 5 3 9 0 3 10 4 3 11 6 4 12 0 4 13 2 4 14 3 5 15 5 5 16 7 5 17 1 0 18 3 0 19 2 0 20 3 1 21 7 1 22 6 1 23 7 2 24 5 2 25 4 2 26 5 3 27 1 3 28 0 3 29 6 4 30 4 4 31 0 4 32 3 5 33 1 5 34 5 5 35</p>
        </triangles>
      </mesh>
    </geometry>
    <geometry id="visible_2x_stud_cutaway_16_mesh-mesh" name="visible 2x stud cutaway 16 mesh">
      <mesh>
        <source id="visible_2x_stud_cutaway_16_mesh-mesh-positions">
          <float_array id="visible_2x_stud_cutaway_16_mesh-mesh-positions-array" count="24">-0.5 -0.5 -0.5 -0.5 -0.5 0.5 -0.5 0.5 -0.5 -0.5 0.5 0.5 0.5 -0.5 -0.5 0.5 -0.5 0.5 0.5 0.5 -0.5 0.5 0.5 0.5</float_array>
          <technique_common>
            <accessor source="#visible_2x_stud_cutaway_16_mesh-mesh-positions-array" count="8" stride="3">
              <param name="X" type="float"/>
              <param name="Y" type="float"/>
              <param name="Z" type="float"/>
            </accessor>
          </technique_common>
        </source>
        <source id="visible_2x_stud_cutaway_16_mesh-mesh-normals">
          <float_array id="visible_2x_stud_cutaway_16_mesh-mesh-normals-array" count="18">-1 0 0 0 1 0 1 0 0 0 -1 0 0 0 -1 0 0 1</float_array>
          <technique_common>
            <accessor source="#visible_2x_stud_cutaway_16_mesh-mesh-normals-array" count="6" stride="3">
              <param name="X" type="float"/>
              <param name="Y" type="float"/>
              <param name="Z" type="float"/>
            </accessor>
          </technique_common>
        </source>
        <source id="visible_2x_stud_cutaway_16_mesh-mesh-map-0">
          <float_array id="visible_2x_stud_cutaway_16_mesh-mesh-map-0-array" count="72">0.625 0 0.375 0.25 0.375 0 0.625 0.25 0.375 0.5 0.375 0.25 0.625 0.5 0.375 0.75 0.375 0.5 0.625 0.75 0.375 1 0.375 0.75 0.375 0.5 0.125 0.75 0.125 0.5 0.875 0.5 0.625 0.75 0.625 0.5 0.625 0 0.625 0.25 0.375 0.25 0.625 0.25 0.625 0.5 0.375 0.5 0.625 0.5 0.625 0.75 0.375 0.75 0.625 0.75 0.625 1 0.375 1 0.375 0.5 0.375 0.75 0.125 0.75 0.875 0.5 0.875 0.75 0.625 0.75</float_array>
          <technique_common>
            <accessor source="#visible_2x_stud_cutaway_16_mesh-mesh-map-0-array" count="36" stride="2">
              <param name="S" type="float"/>
              <param name="T" type="float"/>
            </accessor>
          </technique_common>
        </source>
        <vertices id="visible_2x_stud_cutaway_16_mesh-mesh-vertices">
          <input semantic="POSITION" source="#visible_2x_stud_cutaway_16_mesh-mesh-positions"/>
        </vertices>
        <triangles material="standard_2x_framing_lumber-material" count="12">
          <input semantic="VERTEX" source="#visible_2x_stud_cutaway_16_mesh-mesh-vertices" offset="0"/>
          <input semantic="NORMAL" source="#visible_2x_stud_cutaway_16_mesh-mesh-normals" offset="1"/>
          <input semantic="TEXCOORD" source="#visible_2x_stud_cutaway_16_mesh-mesh-map-0" offset="2" set="0"/>
          <p>1 0 0 2 0 1 0 0 2 3 1 3 6 1 4 2 1 5 7 2 6 4 2 7 6 2 8 5 3 9 0 3 10 4 3 11 6 4 12 0 4 13 2 4 14 3 5 15 5 5 16 7 5 17 1 0 18 3 0 19 2 0 20 3 1 21 7 1 22 6 1 23 7 2 24 5 2 25 4 2 26 5 3 27 1 3 28 0 3 29 6 4 30 4 4 31 0 4 32 3 5 33 1 5 34 5 5 35</p>
        </triangles>
      </mesh>
    </geometry>
    <geometry id="visible_2x_stud_left_16_mesh-mesh" name="visible 2x stud left 16 mesh">
      <mesh>
        <source id="visible_2x_stud_left_16_mesh-mesh-positions">
          <float_array id="visible_2x_stud_left_16_mesh-mesh-positions-array" count="24">-0.5 -0.5 -0.5 -0.5 -0.5 0.5 -0.5 0.5 -0.5 -0.5 0.5 0.5 0.5 -0.5 -0.5 0.5 -0.5 0.5 0.5 0.5 -0.5 0.5 0.5 0.5</float_array>
          <technique_common>
            <accessor source="#visible_2x_stud_left_16_mesh-mesh-positions-array" count="8" stride="3">
              <param name="X" type="float"/>
              <param name="Y" type="float"/>
              <param name="Z" type="float"/>
            </accessor>
          </technique_common>
        </source>
        <source id="visible_2x_stud_left_16_mesh-mesh-normals">
          <float_array id="visible_2x_stud_left_16_mesh-mesh-normals-array" count="18">-1 0 0 0 1 0 1 0 0 0 -1 0 0 0 -1 0 0 1</float_array>
          <technique_common>
            <accessor source="#visible_2x_stud_left_16_mesh-mesh-normals-array" count="6" stride="3">
              <param name="X" type="float"/>
              <param name="Y" type="float"/>
              <param name="Z" type="float"/>
            </accessor>
          </technique_common>
        </source>
        <source id="visible_2x_stud_left_16_mesh-mesh-map-0">
          <float_array id="visible_2x_stud_left_16_mesh-mesh-map-0-array" count="72">0.625 0 0.375 0.25 0.375 0 0.625 0.25 0.375 0.5 0.375 0.25 0.625 0.5 0.375 0.75 0.375 0.5 0.625 0.75 0.375 1 0.375 0.75 0.375 0.5 0.125 0.75 0.125 0.5 0.875 0.5 0.625 0.75 0.625 0.5 0.625 0 0.625 0.25 0.375 0.25 0.625 0.25 0.625 0.5 0.375 0.5 0.625 0.5 0.625 0.75 0.375 0.75 0.625 0.75 0.625 1 0.375 1 0.375 0.5 0.375 0.75 0.125 0.75 0.875 0.5 0.875 0.75 0.625 0.75</float_array>
          <technique_common>
            <accessor source="#visible_2x_stud_left_16_mesh-mesh-map-0-array" count="36" stride="2">
              <param name="S" type="float"/>
              <param name="T" type="float"/>
            </accessor>
          </technique_common>
        </source>
        <vertices id="visible_2x_stud_left_16_mesh-mesh-vertices">
          <input semantic="POSITION" source="#visible_2x_stud_left_16_mesh-mesh-positions"/>
        </vertices>
        <triangles material="standard_2x_framing_lumber-material" count="12">
          <input semantic="VERTEX" source="#visible_2x_stud_left_16_mesh-mesh-vertices" offset="0"/>
          <input semantic="NORMAL" source="#visible_2x_stud_left_16_mesh-mesh-normals" offset="1"/>
          <input semantic="TEXCOORD" source="#visible_2x_stud_left_16_mesh-mesh-map-0" offset="2" set="0"/>
          <p>1 0 0 2 0 1 0 0 2 3 1 3 6 1 4 2 1 5 7 2 6 4 2 7 6 2 8 5 3 9 0 3 10 4 3 11 6 4 12 0 4 13 2 4 14 3 5 15 5 5 16 7 5 17 1 0 18 3 0 19 2 0 20 3 1 21 7 1 22 6 1 23 7 2 24 5 2 25 4 2 26 5 3 27 1 3 28 0 3 29 6 4 30 4 4 31 0 4 32 3 5 33 1 5 34 5 5 35</p>
        </triangles>
      </mesh>
    </geometry>
    <geometry id="visible_2x_stud_cutaway_0_mesh-mesh" name="visible 2x stud cutaway 0 mesh">
      <mesh>
        <source id="visible_2x_stud_cutaway_0_mesh-mesh-positions">
          <float_array id="visible_2x_stud_cutaway_0_mesh-mesh-positions-array" count="24">-0.5 -0.5 -0.5 -0.5 -0.5 0.5 -0.5 0.5 -0.5 -0.5 0.5 0.5 0.5 -0.5 -0.5 0.5 -0.5 0.5 0.5 0.5 -0.5 0.5 0.5 0.5</float_array>
          <technique_common>
            <accessor source="#visible_2x_stud_cutaway_0_mesh-mesh-positions-array" count="8" stride="3">
              <param name="X" type="float"/>
              <param name="Y" type="float"/>
              <param name="Z" type="float"/>
            </accessor>
          </technique_common>
        </source>
        <source id="visible_2x_stud_cutaway_0_mesh-mesh-normals">
          <float_array id="visible_2x_stud_cutaway_0_mesh-mesh-normals-array" count="18">-1 0 0 0 1 0 1 0 0 0 -1 0 0 0 -1 0 0 1</float_array>
          <technique_common>
            <accessor source="#visible_2x_stud_cutaway_0_mesh-mesh-normals-array" count="6" stride="3">
              <param name="X" type="float"/>
              <param name="Y" type="float"/>
              <param name="Z" type="float"/>
            </accessor>
          </technique_common>
        </source>
        <source id="visible_2x_stud_cutaway_0_mesh-mesh-map-0">
          <float_array id="visible_2x_stud_cutaway_0_mesh-mesh-map-0-array" count="72">0.625 0 0.375 0.25 0.375 0 0.625 0.25 0.375 0.5 0.375 0.25 0.625 0.5 0.375 0.75 0.375 0.5 0.625 0.75 0.375 1 0.375 0.75 0.375 0.5 0.125 0.75 0.125 0.5 0.875 0.5 0.625 0.75 0.625 0.5 0.625 0 0.625 0.25 0.375 0.25 0.625 0.25 0.625 0.5 0.375 0.5 0.625 0.5 0.625 0.75 0.375 0.75 0.625 0.75 0.625 1 0.375 1 0.375 0.5 0.375 0.75 0.125 0.75 0.875 0.5 0.875 0.75 0.625 0.75</float_array>
          <technique_common>
            <accessor source="#visible_2x_stud_cutaway_0_mesh-mesh-map-0-array" count="36" stride="2">
              <param name="S" type="float"/>
              <param name="T" type="float"/>
            </accessor>
          </technique_common>
        </source>
        <vertices id="visible_2x_stud_cutaway_0_mesh-mesh-vertices">
          <input semantic="POSITION" source="#visible_2x_stud_cutaway_0_mesh-mesh-positions"/>
        </vertices>
        <triangles material="standard_2x_framing_lumber-material" count="12">
          <input semantic="VERTEX" source="#visible_2x_stud_cutaway_0_mesh-mesh-vertices" offset="0"/>
          <input semantic="NORMAL" source="#visible_2x_stud_cutaway_0_mesh-mesh-normals" offset="1"/>
          <input semantic="TEXCOORD" source="#visible_2x_stud_cutaway_0_mesh-mesh-map-0" offset="2" set="0"/>
          <p>1 0 0 2 0 1 0 0 2 3 1 3 6 1 4 2 1 5 7 2 6 4 2 7 6 2 8 5 3 9 0 3 10 4 3 11 6 4 12 0 4 13 2 4 14 3 5 15 5 5 16 7 5 17 1 0 18 3 0 19 2 0 20 3 1 21 7 1 22 6 1 23 7 2 24 5 2 25 4 2 26 5 3 27 1 3 28 0 3 29 6 4 30 4 4 31 0 4 32 3 5 33 1 5 34 5 5 35</p>
        </triangles>
      </mesh>
    </geometry>
    <geometry id="visible_2x_stud_left_0_mesh-mesh" name="visible 2x stud left 0 mesh">
      <mesh>
        <source id="visible_2x_stud_left_0_mesh-mesh-positions">
          <float_array id="visible_2x_stud_left_0_mesh-mesh-positions-array" count="24">-0.5 -0.5 -0.5 -0.5 -0.5 0.5 -0.5 0.5 -0.5 -0.5 0.5 0.5 0.5 -0.5 -0.5 0.5 -0.5 0.5 0.5 0.5 -0.5 0.5 0.5 0.5</float_array>
          <technique_common>
            <accessor source="#visible_2x_stud_left_0_mesh-mesh-positions-array" count="8" stride="3">
              <param name="X" type="float"/>
              <param name="Y" type="float"/>
              <param name="Z" type="float"/>
            </accessor>
          </technique_common>
        </source>
        <source id="visible_2x_stud_left_0_mesh-mesh-normals">
          <float_array id="visible_2x_stud_left_0_mesh-mesh-normals-array" count="18">-1 0 0 0 1 0 1 0 0 0 -1 0 0 0 -1 0 0 1</float_array>
          <technique_common>
            <accessor source="#visible_2x_stud_left_0_mesh-mesh-normals-array" count="6" stride="3">
              <param name="X" type="float"/>
              <param name="Y" type="float"/>
              <param name="Z" type="float"/>
            </accessor>
          </technique_common>
        </source>
        <source id="visible_2x_stud_left_0_mesh-mesh-map-0">
          <float_array id="visible_2x_stud_left_0_mesh-mesh-map-0-array" count="72">0.625 0 0.375 0.25 0.375 0 0.625 0.25 0.375 0.5 0.375 0.25 0.625 0.5 0.375 0.75 0.375 0.5 0.625 0.75 0.375 1 0.375 0.75 0.375 0.5 0.125 0.75 0.125 0.5 0.875 0.5 0.625 0.75 0.625 0.5 0.625 0 0.625 0.25 0.375 0.25 0.625 0.25 0.625 0.5 0.375 0.5 0.625 0.5 0.625 0.75 0.375 0.75 0.625 0.75 0.625 1 0.375 1 0.375 0.5 0.375 0.75 0.125 0.75 0.875 0.5 0.875 0.75 0.625 0.75</float_array>
          <technique_common>
            <accessor source="#visible_2x_stud_left_0_mesh-mesh-map-0-array" count="36" stride="2">
              <param name="S" type="float"/>
              <param name="T" type="float"/>
            </accessor>
          </technique_common>
        </source>
        <vertices id="visible_2x_stud_left_0_mesh-mesh-vertices">
          <input semantic="POSITION" source="#visible_2x_stud_left_0_mesh-mesh-positions"/>
        </vertices>
        <triangles material="standard_2x_framing_lumber-material" count="12">
          <input semantic="VERTEX" source="#visible_2x_stud_left_0_mesh-mesh-vertices" offset="0"/>
          <input semantic="NORMAL" source="#visible_2x_stud_left_0_mesh-mesh-normals" offset="1"/>
          <input semantic="TEXCOORD" source="#visible_2x_stud_left_0_mesh-mesh-map-0" offset="2" set="0"/>
          <p>1 0 0 2 0 1 0 0 2 3 1 3 6 1 4 2 1 5 7 2 6 4 2 7 6 2 8 5 3 9 0 3 10 4 3 11 6 4 12 0 4 13 2 4 14 3 5 15 5 5 16 7 5 17 1 0 18 3 0 19 2 0 20 3 1 21 7 1 22 6 1 23 7 2 24 5 2 25 4 2 26 5 3 27 1 3 28 0 3 29 6 4 30 4 4 31 0 4 32 3 5 33 1 5 34 5 5 35</p>
        </triangles>
      </mesh>
    </geometry>
    <geometry id="cutaway_right_framed_half_wall_mesh-mesh" name="cutaway right framed half wall mesh">
      <mesh>
        <source id="cutaway_right_framed_half_wall_mesh-mesh-positions">
          <float_array id="cutaway_right_framed_half_wall_mesh-mesh-positions-array" count="24">-0.5 -0.5 -0.5 -0.5 -0.5 0.5 -0.5 0.5 -0.5 -0.5 0.5 0.5 0.5 -0.5 -0.5 0.5 -0.5 0.5 0.5 0.5 -0.5 0.5 0.5 0.5</float_array>
          <technique_common>
            <accessor source="#cutaway_right_framed_half_wall_mesh-mesh-positions-array" count="8" stride="3">
              <param name="X" type="float"/>
              <param name="Y" type="float"/>
              <param name="Z" type="float"/>
            </accessor>
          </technique_common>
        </source>
        <source id="cutaway_right_framed_half_wall_mesh-mesh-normals">
          <float_array id="cutaway_right_framed_half_wall_mesh-mesh-normals-array" count="18">-1 0 0 0 1 0 1 0 0 0 -1 0 0 0 -1 0 0 1</float_array>
          <technique_common>
            <accessor source="#cutaway_right_framed_half_wall_mesh-mesh-normals-array" count="6" stride="3">
              <param name="X" type="float"/>
              <param name="Y" type="float"/>
              <param name="Z" type="float"/>
            </accessor>
          </technique_common>
        </source>
        <source id="cutaway_right_framed_half_wall_mesh-mesh-map-0">
          <float_array id="cutaway_right_framed_half_wall_mesh-mesh-map-0-array" count="72">0.625 0 0.375 0.25 0.375 0 0.625 0.25 0.375 0.5 0.375 0.25 0.625 0.5 0.375 0.75 0.375 0.5 0.625 0.75 0.375 1 0.375 0.75 0.375 0.5 0.125 0.75 0.125 0.5 0.875 0.5 0.625 0.75 0.625 0.5 0.625 0 0.625 0.25 0.375 0.25 0.625 0.25 0.625 0.5 0.375 0.5 0.625 0.5 0.625 0.75 0.375 0.75 0.625 0.75 0.625 1 0.375 1 0.375 0.5 0.375 0.75 0.125 0.75 0.875 0.5 0.875 0.75 0.625 0.75</float_array>
          <technique_common>
            <accessor source="#cutaway_right_framed_half_wall_mesh-mesh-map-0-array" count="36" stride="2">
              <param name="S" type="float"/>
              <param name="T" type="float"/>
            </accessor>
          </technique_common>
        </source>
        <vertices id="cutaway_right_framed_half_wall_mesh-mesh-vertices">
          <input semantic="POSITION" source="#cutaway_right_framed_half_wall_mesh-mesh-positions"/>
        </vertices>
        <triangles material="OSB___rough_utility_panels-material" count="12">
          <input semantic="VERTEX" source="#cutaway_right_framed_half_wall_mesh-mesh-vertices" offset="0"/>
          <input semantic="NORMAL" source="#cutaway_right_framed_half_wall_mesh-mesh-normals" offset="1"/>
          <input semantic="TEXCOORD" source="#cutaway_right_framed_half_wall_mesh-mesh-map-0" offset="2" set="0"/>
          <p>1 0 0 2 0 1 0 0 2 3 1 3 6 1 4 2 1 5 7 2 6 4 2 7 6 2 8 5 3 9 0 3 10 4 3 11 6 4 12 0 4 13 2 4 14 3 5 15 5 5 16 7 5 17 1 0 18 3 0 19 2 0 20 3 1 21 7 1 22 6 1 23 7 2 24 5 2 25 4 2 26 5 3 27 1 3 28 0 3 29 6 4 30 4 4 31 0 4 32 3 5 33 1 5 34 5 5 35</p>
        </triangles>
      </mesh>
    </geometry>
  </library_geometries>
  <library_visual_scenes>
    <visual_scene id="Scene" name="Scene">
      <node id="visible_2x_stud_cutaway_144" name="visible 2x stud cutaway 144" type="NODE">
        <matrix sid="transform">0.0508 0 0 16.9926 0 0.0381 0 3.67665 0 0 1.2192 0.9652 0 0 0 1</matrix>
        <instance_geometry url="#visible_2x_stud_cutaway_144_mesh-mesh" name="visible 2x stud cutaway 144">
          <bind_material>
            <technique_common>
              <instance_material symbol="standard_2x_framing_lumber-material" target="#standard_2x_framing_lumber-material">
                <bind_vertex_input semantic="UVMap" input_semantic="TEXCOORD" input_set="0"/>
              </instance_material>
            </technique_common>
          </bind_material>
        </instance_geometry>
      </node>
      <node id="visible_2x_stud_left_144" name="visible 2x stud left 144" type="NODE">
        <matrix sid="transform">0.0508 0 0 15.3162 0 0.0381 0 3.67665 0 0 1.5748 1.143 0 0 0 1</matrix>
        <instance_geometry url="#visible_2x_stud_left_144_mesh-mesh" name="visible 2x stud left 144">
          <bind_material>
            <technique_common>
              <instance_material symbol="standard_2x_framing_lumber-material" target="#standard_2x_framing_lumber-material">
                <bind_vertex_input semantic="UVMap" input_semantic="TEXCOORD" input_set="0"/>
              </instance_material>
            </technique_common>
          </bind_material>
        </instance_geometry>
      </node>
      <node id="visible_2x_stud_cutaway_128" name="visible 2x stud cutaway 128" type="NODE">
        <matrix sid="transform">0.0508 0 0 16.9926 0 0.0381 0 3.27025 0 0 1.2192 0.9652 0 0 0 1</matrix>
        <instance_geometry url="#visible_2x_stud_cutaway_128_mesh-mesh" name="visible 2x stud cutaway 128">
          <bind_material>
            <technique_common>
              <instance_material symbol="standard_2x_framing_lumber-material" target="#standard_2x_framing_lumber-material">
                <bind_vertex_input semantic="UVMap" input_semantic="TEXCOORD" input_set="0"/>
              </instance_material>
            </technique_common>
          </bind_material>
        </instance_geometry>
      </node>
      <node id="visible_2x_stud_left_128" name="visible 2x stud left 128" type="NODE">
        <matrix sid="transform">0.0508 0 0 15.3162 0 0.0381 0 3.27025 0 0 1.5748 1.143 0 0 0 1</matrix>
        <instance_geometry url="#visible_2x_stud_left_128_mesh-mesh" name="visible 2x stud left 128">
          <bind_material>
            <technique_common>
              <instance_material symbol="standard_2x_framing_lumber-material" target="#standard_2x_framing_lumber-material">
                <bind_vertex_input semantic="UVMap" input_semantic="TEXCOORD" input_set="0"/>
              </instance_material>
            </technique_common>
          </bind_material>
        </instance_geometry>
      </node>
      <node id="visible_2x_stud_cutaway_112" name="visible 2x stud cutaway 112" type="NODE">
        <matrix sid="transform">0.0508 0 0 16.9926 0 0.0381 0 2.86385 0 0 1.2192 0.9652 0 0 0 1</matrix>
        <instance_geometry url="#visible_2x_stud_cutaway_112_mesh-mesh" name="visible 2x stud cutaway 112">
          <bind_material>
            <technique_common>
              <instance_material symbol="standard_2x_framing_lumber-material" target="#standard_2x_framing_lumber-material">
                <bind_vertex_input semantic="UVMap" input_semantic="TEXCOORD" input_set="0"/>
              </instance_material>
            </technique_common>
          </bind_material>
        </instance_geometry>
      </node>
      <node id="visible_2x_stud_left_112" name="visible 2x stud left 112" type="NODE">
        <matrix sid="transform">0.0508 0 0 15.3162 0 0.0381 0 2.86385 0 0 1.5748 1.143 0 0 0 1</matrix>
        <instance_geometry url="#visible_2x_stud_left_112_mesh-mesh" name="visible 2x stud left 112">
          <bind_material>
            <technique_common>
              <instance_material symbol="standard_2x_framing_lumber-material" target="#standard_2x_framing_lumber-material">
                <bind_vertex_input semantic="UVMap" input_semantic="TEXCOORD" input_set="0"/>
              </instance_material>
            </technique_common>
          </bind_material>
        </instance_geometry>
      </node>
      <node id="visible_2x_stud_cutaway_96" name="visible 2x stud cutaway 96" type="NODE">
        <matrix sid="transform">0.0508 0 0 16.9926 0 0.0381 0 2.45745 0 0 1.2192 0.9652 0 0 0 1</matrix>
        <instance_geometry url="#visible_2x_stud_cutaway_96_mesh-mesh" name="visible 2x stud cutaway 96">
          <bind_material>
            <technique_common>
              <instance_material symbol="standard_2x_framing_lumber-material" target="#standard_2x_framing_lumber-material">
                <bind_vertex_input semantic="UVMap" input_semantic="TEXCOORD" input_set="0"/>
              </instance_material>
            </technique_common>
          </bind_material>
        </instance_geometry>
      </node>
      <node id="visible_2x_stud_left_96" name="visible 2x stud left 96" type="NODE">
        <matrix sid="transform">0.0508 0 0 15.3162 0 0.0381 0 2.45745 0 0 1.5748 1.143 0 0 0 1</matrix>
        <instance_geometry url="#visible_2x_stud_left_96_mesh-mesh" name="visible 2x stud left 96">
          <bind_material>
            <technique_common>
              <instance_material symbol="standard_2x_framing_lumber-material" target="#standard_2x_framing_lumber-material">
                <bind_vertex_input semantic="UVMap" input_semantic="TEXCOORD" input_set="0"/>
              </instance_material>
            </technique_common>
          </bind_material>
        </instance_geometry>
      </node>
      <node id="visible_2x_stud_cutaway_80" name="visible 2x stud cutaway 80" type="NODE">
        <matrix sid="transform">0.0508 0 0 16.9926 0 0.0381 0 2.05105 0 0 1.2192 0.9652 0 0 0 1</matrix>
        <instance_geometry url="#visible_2x_stud_cutaway_80_mesh-mesh" name="visible 2x stud cutaway 80">
          <bind_material>
            <technique_common>
              <instance_material symbol="standard_2x_framing_lumber-material" target="#standard_2x_framing_lumber-material">
                <bind_vertex_input semantic="UVMap" input_semantic="TEXCOORD" input_set="0"/>
              </instance_material>
            </technique_common>
          </bind_material>
        </instance_geometry>
      </node>
      <node id="visible_2x_stud_left_80" name="visible 2x stud left 80" type="NODE">
        <matrix sid="transform">0.0508 0 0 15.3162 0 0.0381 0 2.05105 0 0 1.5748 1.143 0 0 0 1</matrix>
        <instance_geometry url="#visible_2x_stud_left_80_mesh-mesh" name="visible 2x stud left 80">
          <bind_material>
            <technique_common>
              <instance_material symbol="standard_2x_framing_lumber-material" target="#standard_2x_framing_lumber-material">
                <bind_vertex_input semantic="UVMap" input_semantic="TEXCOORD" input_set="0"/>
              </instance_material>
            </technique_common>
          </bind_material>
        </instance_geometry>
      </node>
      <node id="visible_2x_stud_cutaway_64" name="visible 2x stud cutaway 64" type="NODE">
        <matrix sid="transform">0.0508 0 0 16.9926 0 0.0381 0 1.64465 0 0 1.2192 0.9652 0 0 0 1</matrix>
        <instance_geometry url="#visible_2x_stud_cutaway_64_mesh-mesh" name="visible 2x stud cutaway 64">
          <bind_material>
            <technique_common>
              <instance_material symbol="standard_2x_framing_lumber-material" target="#standard_2x_framing_lumber-material">
                <bind_vertex_input semantic="UVMap" input_semantic="TEXCOORD" input_set="0"/>
              </instance_material>
            </technique_common>
          </bind_material>
        </instance_geometry>
      </node>
      <node id="visible_2x_stud_left_64" name="visible 2x stud left 64" type="NODE">
        <matrix sid="transform">0.0508 0 0 15.3162 0 0.0381 0 1.64465 0 0 1.5748 1.143 0 0 0 1</matrix>
        <instance_geometry url="#visible_2x_stud_left_64_mesh-mesh" name="visible 2x stud left 64">
          <bind_material>
            <technique_common>
              <instance_material symbol="standard_2x_framing_lumber-material" target="#standard_2x_framing_lumber-material">
                <bind_vertex_input semantic="UVMap" input_semantic="TEXCOORD" input_set="0"/>
              </instance_material>
            </technique_common>
          </bind_material>
        </instance_geometry>
      </node>
      <node id="visible_2x_stud_cutaway_48" name="visible 2x stud cutaway 48" type="NODE">
        <matrix sid="transform">0.0508 0 0 16.9926 0 0.0381 0 1.23825 0 0 1.2192 0.9652 0 0 0 1</matrix>
        <instance_geometry url="#visible_2x_stud_cutaway_48_mesh-mesh" name="visible 2x stud cutaway 48">
          <bind_material>
            <technique_common>
              <instance_material symbol="standard_2x_framing_lumber-material" target="#standard_2x_framing_lumber-material">
                <bind_vertex_input semantic="UVMap" input_semantic="TEXCOORD" input_set="0"/>
              </instance_material>
            </technique_common>
          </bind_material>
        </instance_geometry>
      </node>
      <node id="visible_2x_stud_left_48" name="visible 2x stud left 48" type="NODE">
        <matrix sid="transform">0.0508 0 0 15.3162 0 0.0381 0 1.23825 0 0 1.5748 1.143 0 0 0 1</matrix>
        <instance_geometry url="#visible_2x_stud_left_48_mesh-mesh" name="visible 2x stud left 48">
          <bind_material>
            <technique_common>
              <instance_material symbol="standard_2x_framing_lumber-material" target="#standard_2x_framing_lumber-material">
                <bind_vertex_input semantic="UVMap" input_semantic="TEXCOORD" input_set="0"/>
              </instance_material>
            </technique_common>
          </bind_material>
        </instance_geometry>
      </node>
      <node id="visible_2x_stud_cutaway_32" name="visible 2x stud cutaway 32" type="NODE">
        <matrix sid="transform">0.0508 0 0 16.9926 0 0.0381 0 0.83185 0 0 1.2192 0.9652 0 0 0 1</matrix>
        <instance_geometry url="#visible_2x_stud_cutaway_32_mesh-mesh" name="visible 2x stud cutaway 32">
          <bind_material>
            <technique_common>
              <instance_material symbol="standard_2x_framing_lumber-material" target="#standard_2x_framing_lumber-material">
                <bind_vertex_input semantic="UVMap" input_semantic="TEXCOORD" input_set="0"/>
              </instance_material>
            </technique_common>
          </bind_material>
        </instance_geometry>
      </node>
      <node id="visible_2x_stud_left_32" name="visible 2x stud left 32" type="NODE">
        <matrix sid="transform">0.0508 0 0 15.3162 0 0.0381 0 0.83185 0 0 1.5748 1.143 0 0 0 1</matrix>
        <instance_geometry url="#visible_2x_stud_left_32_mesh-mesh" name="visible 2x stud left 32">
          <bind_material>
            <technique_common>
              <instance_material symbol="standard_2x_framing_lumber-material" target="#standard_2x_framing_lumber-material">
                <bind_vertex_input semantic="UVMap" input_semantic="TEXCOORD" input_set="0"/>
              </instance_material>
            </technique_common>
          </bind_material>
        </instance_geometry>
      </node>
      <node id="visible_2x_stud_cutaway_16" name="visible 2x stud cutaway 16" type="NODE">
        <matrix sid="transform">0.0508 0 0 16.9926 0 0.0381 0 0.42545 0 0 1.2192 0.9652 0 0 0 1</matrix>
        <instance_geometry url="#visible_2x_stud_cutaway_16_mesh-mesh" name="visible 2x stud cutaway 16">
          <bind_material>
            <technique_common>
              <instance_material symbol="standard_2x_framing_lumber-material" target="#standard_2x_framing_lumber-material">
                <bind_vertex_input semantic="UVMap" input_semantic="TEXCOORD" input_set="0"/>
              </instance_material>
            </technique_common>
          </bind_material>
        </instance_geometry>
      </node>
      <node id="visible_2x_stud_left_16" name="visible 2x stud left 16" type="NODE">
        <matrix sid="transform">0.0508 0 0 15.3162 0 0.0381 0 0.42545 0 0 1.5748 1.143 0 0 0 1</matrix>
        <instance_geometry url="#visible_2x_stud_left_16_mesh-mesh" name="visible 2x stud left 16">
          <bind_material>
            <technique_common>
              <instance_material symbol="standard_2x_framing_lumber-material" target="#standard_2x_framing_lumber-material">
                <bind_vertex_input semantic="UVMap" input_semantic="TEXCOORD" input_set="0"/>
              </instance_material>
            </technique_common>
          </bind_material>
        </instance_geometry>
      </node>
      <node id="visible_2x_stud_cutaway_0" name="visible 2x stud cutaway 0" type="NODE">
        <matrix sid="transform">0.0508 0 0 16.9926 0 0.0381 0 0.01905 0 0 1.2192 0.9652 0 0 0 1</matrix>
        <instance_geometry url="#visible_2x_stud_cutaway_0_mesh-mesh" name="visible 2x stud cutaway 0">
          <bind_material>
            <technique_common>
              <instance_material symbol="standard_2x_framing_lumber-material" target="#standard_2x_framing_lumber-material">
                <bind_vertex_input semantic="UVMap" input_semantic="TEXCOORD" input_set="0"/>
              </instance_material>
            </technique_common>
          </bind_material>
        </instance_geometry>
      </node>
      <node id="visible_2x_stud_left_0" name="visible 2x stud left 0" type="NODE">
        <matrix sid="transform">0.0508 0 0 15.3162 0 0.0381 0 0.01905 0 0 1.5748 1.143 0 0 0 1</matrix>
        <instance_geometry url="#visible_2x_stud_left_0_mesh-mesh" name="visible 2x stud left 0">
          <bind_material>
            <technique_common>
              <instance_material symbol="standard_2x_framing_lumber-material" target="#standard_2x_framing_lumber-material">
                <bind_vertex_input semantic="UVMap" input_semantic="TEXCOORD" input_set="0"/>
              </instance_material>
            </technique_common>
          </bind_material>
        </instance_geometry>
      </node>
      <node id="cutaway_right_framed_half_wall" name="cutaway right framed half wall" type="NODE">
        <matrix sid="transform">0.0508 0 0 17.0434 0 2.8448 0 1.8796 0 0 0.7112 0.7112 0 0 0 1</matrix>
        <instance_geometry url="#cutaway_right_framed_half_wall_mesh-mesh" name="cutaway right framed half wall">
          <bind_material>
            <technique_common>
              <instance_material symbol="OSB___rough_utility_panels-material" target="#OSB___rough_utility_panels-material">
                <bind_vertex_input semantic="UVMap" input_semantic="TEXCOORD" input_set="0"/>
              </instance_material>
            </technique_common>
          </bind_material>
        </instance_geometry>
      </node>
    </visual_scene>
  </library_visual_scenes>
  <scene>
    <instance_visual_scene url="#Scene"/>
  </scene>
</COLLADA>